<svg xmlns="http://www.w3.org/2000/svg" version="1.1" xmlns:xlink="http://www.w3.org/1999/xlink" xmlns:svgjs="http://svgjs.dev/svgjs" width="200" height="200"><svg width="200" height="200" viewBox="0 0 200 200" fill="none" xmlns="http://www.w3.org/2000/svg">
<path fill-rule="evenodd" clip-rule="evenodd" d="M49.8532 3.92228C62.938 -0.418175 76.973 -1.05478 90.5232 1.51092C181.419 18.7136 197.325 67.1387 197.839 97.4785C198.006 110.807 194.825 123.966 188.584 135.761C176.435 158.949 146.028 205.725 100.942 199.421C41.2964 191.083 -0.449964 150.07 3.22484 72.053C5.2901 28.171 29.2684 10.7561 49.8532 3.92228ZM69.0364 52.8867L137.914 60.1563C140.57 60.4367 143.115 61.3722 145.321 62.8793C147.527 64.3863 149.325 66.4179 150.555 68.7928C151.786 71.1676 152.409 73.8116 152.371 76.4888C152.333 79.1659 151.633 81.7928 150.335 84.1348L116.637 144.842C110.363 156.15 94.0753 155.93 88.1255 144.46C85.5995 139.58 81.9062 135.405 77.3752 132.307C77.1967 132.185 77.0183 132.063 76.8399 131.94C72.4862 128.956 68.0886 125.941 62.1593 126.708C55.987 127.505 41.2743 128.308 41.2743 128.308C40.7363 128.251 40.2209 128.062 39.7742 127.757C39.3275 127.451 38.9634 127.04 38.7145 126.559C38.4656 126.078 38.3397 125.542 38.348 125C38.3564 124.458 38.4987 123.926 38.7622 123.452C38.7622 123.452 49.0029 111.128 52.5242 105.737C56.0455 100.346 56.3377 96.2672 56.4139 91.1638C56.4901 86.0603 55.3037 81.0193 52.9607 76.491C47.026 65.0254 56.2166 51.5338 69.0364 52.8867Z" fill="black"></path>
</svg><style>@media (prefers-color-scheme: light) { :root { filter: none; } }
@media (prefers-color-scheme: dark) { :root { filter: invert(100%); } }
</style></svg>