<?xml version="1.0" standalone="no"?>
<!DOCTYPE svg PUBLIC "-//W3C//DTD SVG 20010904//EN"
 "http://www.w3.org/TR/2001/REC-SVG-20010904/DTD/svg10.dtd">
<svg version="1.0" xmlns="http://www.w3.org/2000/svg"
 width="700.000000pt" height="700.000000pt" viewBox="0 0 700.000000 700.000000"
 preserveAspectRatio="xMidYMid meet">
<metadata>
Created by potrace 1.14, written by Peter Selinger 2001-2017
</metadata>
<g transform="translate(0.000000,700.000000) scale(0.100000,-0.100000)"
fill="#000000" stroke="none">
<path d="M2557 6894 c-1 -1 -54 -4 -117 -8 -63 -3 -126 -8 -140 -10 -14 -3
-47 -7 -73 -11 -69 -8 -229 -42 -317 -66 -786 -217 -1328 -731 -1569 -1489
-26 -82 -76 -275 -87 -335 -16 -94 -35 -221 -40 -270 -3 -33 -7 -71 -10 -85
-21 -130 -21 -733 1 -974 5 -57 18 -190 20 -196 1 -3 5 -34 9 -70 12 -98 13
-108 30 -200 26 -146 34 -184 66 -313 45 -187 128 -446 181 -564 11 -23 19
-44 19 -47 0 -3 28 -65 63 -138 225 -471 505 -829 921 -1176 201 -168 546
-374 821 -491 55 -23 109 -47 120 -52 164 -74 671 -215 885 -244 24 -4 47 -8
50 -10 3 -2 30 -6 60 -10 30 -3 66 -8 80 -10 14 -2 45 -7 70 -10 54 -8 319 -8
375 -1 22 3 63 8 90 11 65 7 181 32 270 57 650 184 1271 701 1804 1501 87 130
208 324 224 357 4 8 15 29 25 45 82 134 202 377 242 491 12 33 25 66 29 75 23
42 99 333 115 444 4 22 8 47 11 55 2 8 7 47 10 85 4 39 9 84 11 100 6 53 7
337 0 420 -15 209 -54 420 -112 615 -31 105 -84 252 -96 264 -4 6 -8 16 -8 23
0 14 -74 167 -130 269 -58 106 -225 353 -260 384 -3 3 -18 23 -35 45 -35 48
-313 327 -373 375 -24 19 -54 44 -65 54 -37 32 -198 150 -282 207 -357 241
-851 468 -1365 627 -97 30 -177 54 -195 58 -5 1 -82 21 -170 43 -88 23 -169
43 -180 46 -11 2 -63 13 -115 25 -112 26 -119 27 -190 40 -30 6 -64 12 -75 14
-11 2 -56 9 -100 15 -44 7 -93 14 -110 16 -64 10 -381 25 -388 19z m12 -1808
c13 -3 53 -8 90 -11 36 -3 82 -7 101 -10 19 -2 82 -9 140 -15 58 -6 121 -13
140 -15 19 -2 64 -6 100 -10 36 -3 76 -8 90 -10 14 -3 57 -7 95 -10 39 -3 77
-7 85 -9 8 -3 56 -8 105 -11 50 -4 92 -8 95 -10 3 -2 41 -6 85 -10 44 -4 91
-8 105 -10 14 -1 59 -6 100 -10 41 -4 89 -9 105 -11 17 -2 55 -6 85 -9 30 -3
71 -7 90 -10 19 -2 62 -7 95 -10 33 -3 98 -10 145 -15 47 -5 112 -12 145 -15
90 -9 226 -25 255 -30 262 -49 454 -289 445 -556 -5 -132 -28 -191 -191 -472
-19 -32 -34 -60 -34 -62 0 -2 -15 -30 -34 -62 -35 -61 -68 -120 -119 -213 -17
-30 -70 -126 -119 -213 -48 -87 -88 -159 -88 -161 0 -3 -19 -37 -43 -78 -24
-40 -46 -80 -50 -88 -4 -8 -11 -22 -17 -30 -5 -8 -64 -114 -131 -235 -67 -121
-162 -291 -211 -378 -48 -87 -88 -162 -88 -167 0 -5 -3 -10 -7 -12 -5 -1 -23
-32 -42 -68 -82 -157 -157 -237 -276 -296 -267 -131 -586 -30 -730 232 -48 87
-117 186 -170 243 -33 36 -153 142 -190 169 -43 30 -136 92 -140 92 -2 0 -27
14 -55 30 -28 17 -80 40 -116 51 -89 29 -158 30 -409 4 -22 -2 -76 -7 -120
-10 -44 -3 -105 -8 -135 -10 -30 -2 -108 -7 -173 -11 l-117 -6 -35 35 c-28 28
-35 43 -35 75 0 36 13 55 136 208 142 175 266 336 320 414 74 107 126 225 140
317 3 21 7 49 10 63 8 50 5 247 -6 320 -14 97 -43 193 -87 289 -59 129 -74
181 -77 269 -3 91 9 158 44 242 64 149 211 275 366 315 56 14 264 14 333 1z"/>
</g>
</svg>
