<?xml version="1.0" standalone="no"?>
<!DOCTYPE svg PUBLIC "-//W3C//DTD SVG 20010904//EN"
 "http://www.w3.org/TR/2001/REC-SVG-20010904/DTD/svg10.dtd">
<svg version="1.0" xmlns="http://www.w3.org/2000/svg"
 width="500.000000pt" height="500.000000pt" viewBox="0 0 500.000000 500.000000"
 preserveAspectRatio="xMidYMid meet">
<metadata>
Created by potrace 1.11, written by Peter Selinger 2001-2013
</metadata>
<g transform="translate(0.000000,500.000000) scale(0.100000,-0.100000)"
fill="#000000" stroke="none">
<path d="M2560 4501 c0 -26 -3 -29 -46 -35 -26 -3 -69 -6 -95 -6 -48 0 -49 -1
-49 -30 l0 -29 -97 -3 -98 -3 -3 -32 c-3 -29 -7 -33 -33 -33 -26 0 -29 -3 -29
-30 l0 -30 65 0 65 0 0 -29 c0 -29 1 -30 65 -36 63 -7 65 -8 65 -36 0 -29 0
-29 65 -29 l65 0 0 -35 0 -35 65 0 c65 0 65 0 65 -29 0 -28 2 -29 65 -36 64
-6 65 -7 65 -36 l0 -29 65 0 c65 0 65 0 65 -29 0 -28 2 -29 65 -36 64 -6 65
-7 65 -36 l0 -29 64 0 65 0 3 -32 c3 -33 3 -33 66 -36 61 -3 62 -4 62 -31 0
-28 1 -29 70 -35 69 -7 70 -8 70 -37 l0 -29 65 0 65 0 0 -30 c0 -28 3 -30 35
-30 33 0 35 -2 35 -35 l0 -35 65 0 65 0 0 -64 0 -64 -64 -7 c-61 -6 -65 -8
-68 -33 -3 -27 -3 -27 -100 -30 l-98 -3 0 -28 c0 -28 -2 -29 -65 -36 -64 -6
-65 -7 -65 -36 l0 -29 -65 0 -65 0 0 -30 c0 -28 -3 -30 -35 -30 -32 0 -35 3
-35 29 0 28 -2 29 -65 36 -64 6 -65 7 -65 36 0 27 -3 29 -35 29 -32 0 -35 3
-35 29 0 28 -2 29 -65 36 -64 6 -65 7 -65 36 l0 29 -65 0 -65 0 0 29 c0 26 -4
30 -32 33 -29 3 -33 7 -36 36 l-3 32 -65 0 -64 0 0 29 c0 29 -1 30 -65 36 -63
7 -65 8 -65 36 0 29 0 29 -65 29 l-65 0 0 35 0 35 -65 0 c-65 0 -65 0 -65 29
0 28 -2 29 -65 36 -64 6 -65 7 -65 36 0 27 -3 29 -35 29 -32 0 -35 2 -35 30
l0 30 -65 0 -65 0 0 35 0 35 -65 0 c-65 0 -65 0 -65 29 0 28 -2 29 -65 36 -64
6 -65 7 -65 36 l0 29 -100 0 -100 0 0 -29 c0 -26 -3 -29 -46 -35 -26 -3 -69
-6 -95 -6 -48 0 -49 -1 -49 -30 l0 -30 -100 0 -100 0 0 -35 0 -35 -95 0 -95 0
0 -30 c0 -27 3 -30 30 -30 28 0 30 -3 30 -35 l0 -35 65 0 65 0 0 -30 c0 -28 3
-30 35 -30 32 0 35 -2 35 -29 0 -29 1 -30 65 -36 63 -7 65 -8 65 -35 0 -27 2
-29 65 -35 63 -7 65 -8 65 -36 0 -29 1 -29 60 -29 60 0 60 0 60 -29 0 -27 3
-30 38 -33 34 -3 37 -6 40 -35 3 -32 3 -32 65 -35 59 -3 62 -4 65 -30 3 -24 8
-27 63 -33 57 -7 59 -8 59 -35 0 -26 4 -29 38 -32 32 -3 37 -7 40 -30 3 -25 7
-27 68 -33 62 -7 64 -8 64 -35 0 -27 3 -28 59 -35 55 -6 60 -9 63 -33 3 -26 6
-27 66 -30 61 -3 62 -3 62 -32 0 -28 3 -30 35 -30 33 0 35 -2 35 -35 l0 -35
65 0 65 0 0 -65 0 -65 -30 0 -30 0 0 -365 c0 -412 10 -371 -84 -359 -42 6 -46
9 -46 34 0 27 -2 28 -64 35 -61 6 -65 8 -68 33 -2 22 -9 28 -35 30 -29 3 -33
7 -33 33 l0 29 -65 0 -65 0 0 35 0 35 -64 0 -65 0 -3 33 c-3 28 -7 32 -35 35
l-33 3 0 390 0 389 -35 0 c-32 0 -35 2 -35 29 0 29 -1 30 -65 36 -63 7 -65 8
-65 35 0 27 -2 29 -65 35 -63 7 -65 8 -65 36 0 26 -3 29 -35 29 -32 0 -35 2
-35 29 0 29 -1 30 -65 36 -63 7 -65 8 -65 36 0 29 -1 29 -60 29 -60 0 -60 0
-60 29 0 27 -3 30 -37 33 -35 3 -38 6 -41 36 l-3 32 -60 0 c-58 0 -59 0 -59
29 0 26 -3 29 -46 35 -93 12 -84 40 -84 -259 l0 -265 28 0 29 0 6 -292 c4
-161 7 -382 7 -490 l0 -198 24 0 c21 0 24 -6 30 -52 3 -29 6 -175 6 -325 l0
-271 65 -7 c63 -7 65 -8 65 -36 0 -26 3 -29 35 -29 33 0 35 -2 35 -35 l0 -35
60 0 60 0 0 -30 c0 -28 3 -30 35 -30 33 0 35 -2 35 -35 0 -33 2 -35 35 -35 32
0 35 -3 35 -29 0 -28 2 -29 65 -36 64 -6 65 -7 65 -36 0 -27 3 -29 35 -29 32
0 35 -3 35 -29 0 -28 2 -29 60 -36 58 -7 60 -8 60 -36 0 -26 3 -29 34 -29 32
0 35 -3 38 -32 3 -33 3 -33 66 -36 61 -3 62 -3 62 -32 0 -28 3 -30 35 -30 33
0 35 -2 35 -35 0 -33 2 -35 35 -35 32 0 35 -2 35 -29 0 -29 1 -30 65 -36 63
-7 65 -8 65 -36 0 -26 4 -29 30 -29 26 0 30 -3 30 -29 0 -28 2 -29 65 -36 64
-6 65 -7 65 -36 0 -27 3 -29 35 -29 32 0 35 -3 35 -29 0 -26 3 -29 46 -35 26
-3 84 -6 130 -6 l84 0 0 35 0 35 65 0 65 0 0 30 0 30 64 0 65 0 3 33 3 32 68
3 c67 3 67 3 67 32 0 29 1 29 63 32 62 3 62 3 65 36 l3 32 94 0 94 0 3 33 c3
32 3 32 66 35 61 3 62 3 62 32 l0 30 64 0 65 0 3 32 c3 33 3 33 66 36 61 3 62
3 62 32 0 29 0 29 68 32 l67 3 3 33 3 32 65 0 c64 0 64 0 64 29 0 28 2 29 65
36 64 6 65 7 65 36 l0 29 65 0 c65 0 65 0 65 29 0 27 3 29 53 35 28 3 71 6 95
6 40 0 42 1 42 30 0 28 3 30 35 30 l35 0 0 473 c0 259 3 583 7 720 6 246 6
247 28 247 22 0 23 4 27 128 3 70 5 262 4 427 l-1 300 -32 3 c-29 3 -33 7 -33
33 l0 29 -65 0 -65 0 0 29 c0 29 -1 30 -65 36 -63 7 -65 8 -65 36 0 28 -1 28
-67 31 l-68 3 -3 33 -3 32 -65 0 -64 0 0 30 c0 29 -1 29 -62 32 -63 3 -63 3
-66 36 l-3 32 -65 0 -64 0 0 30 c0 29 -1 29 -62 32 -63 3 -63 3 -66 36 l-3 32
-65 0 c-64 0 -64 0 -64 29 0 27 -3 29 -52 35 -29 3 -72 6 -95 6 -41 0 -43 1
-43 30 0 28 -3 30 -35 30 -32 0 -35 3 -35 29 0 26 -3 29 -46 35 -26 3 -69 6
-95 6 -47 0 -49 1 -49 29 0 28 -2 29 -65 36 -64 6 -65 7 -65 36 l0 29 -105 0
-105 0 0 -29z"/>
<path d="M1712 2658 c3 -29 7 -33 36 -36 28 -3 32 -7 32 -33 0 -26 3 -29 30
-29 28 0 30 3 30 35 0 32 -2 35 -30 35 -27 0 -30 3 -30 30 0 28 -3 30 -36 30
-34 0 -35 -1 -32 -32z"/>
<path d="M1780 2400 c0 -27 3 -30 30 -30 27 0 30 3 30 30 0 27 -3 30 -30 30
-27 0 -30 -3 -30 -30z"/>
</g>
</svg>
