<?xml version="1.0" standalone="no"?>
<!DOCTYPE svg PUBLIC "-//W3C//DTD SVG 20010904//EN"
 "http://www.w3.org/TR/2001/REC-SVG-20010904/DTD/svg10.dtd">
<svg version="1.0" xmlns="http://www.w3.org/2000/svg"
 width="232.000000pt" height="232.000000pt" viewBox="0 0 232.000000 232.000000"
 preserveAspectRatio="xMidYMid meet">
<metadata>
Created by potrace 1.14, written by Peter Selinger 2001-2017
</metadata>
<g transform="translate(0.000000,232.000000) scale(0.100000,-0.100000)"
fill="#000000" stroke="none">
<path d="M690 2304 c-362 -74 -578 -304 -643 -682 -16 -95 -20 -363 -6 -462 5
-36 11 -79 14 -97 2 -17 13 -69 24 -115 110 -464 436 -788 911 -907 185 -46
358 -50 470 -11 251 88 452 269 645 581 166 267 217 502 165 756 -67 324 -269
566 -615 738 -328 163 -733 246 -965 199z"/>
</g>
</svg>
