<?xml version="1.0" encoding="UTF-8" standalone="no"?>
<!DOCTYPE svg PUBLIC "-//W3C//DTD SVG 1.1//EN"
 "http://www.w3.org/Graphics/SVG/1.1/DTD/svg11.dtd">
<!-- Generated by graphviz version 15.0.0 (20260523.1842)
 -->
<!-- Title: ModuleLayerDependencies Pages: 1 -->
<svg width="621pt" height="2015pt"
 viewBox="0.00 0.00 621.00 2015.00" xmlns="http://www.w3.org/2000/svg" xmlns:xlink="http://www.w3.org/1999/xlink">
<g id="graph0" class="graph" transform="scale(1 1) rotate(0) translate(4 2011)">
<title>ModuleLayerDependencies</title>
<polygon fill="white" stroke="none" points="-4,4 -4,-2011 617.25,-2011 617.25,4 -4,4"/>
<g id="clust1" class="cluster">
<title>cluster_account</title>
<path fill="none" stroke="#d1d5db" d="M20,-1779C20,-1779 282.5,-1779 282.5,-1779 288.5,-1779 294.5,-1785 294.5,-1791 294.5,-1791 294.5,-1987 294.5,-1987 294.5,-1993 288.5,-1999 282.5,-1999 282.5,-1999 20,-1999 20,-1999 14,-1999 8,-1993 8,-1987 8,-1987 8,-1791 8,-1791 8,-1785 14,-1779 20,-1779"/>
<text xml:space="preserve" text-anchor="middle" x="151.25" y="-1985.5" font-family="Helvetica,sans-Serif" font-size="10.00">account</text>
</g>
<g id="clust2" class="cluster">
<title>cluster_auth</title>
<path fill="none" stroke="#d1d5db" d="M236.5,-827C236.5,-827 499.12,-827 499.12,-827 505.12,-827 511.12,-833 511.12,-839 511.12,-839 511.12,-1096 511.12,-1096 511.12,-1102 505.12,-1108 499.12,-1108 499.12,-1108 236.5,-1108 236.5,-1108 230.5,-1108 224.5,-1102 224.5,-1096 224.5,-1096 224.5,-839 224.5,-839 224.5,-833 230.5,-827 236.5,-827"/>
<text xml:space="preserve" text-anchor="middle" x="367.81" y="-1094.5" font-family="Helvetica,sans-Serif" font-size="10.00">auth</text>
</g>
<g id="clust3" class="cluster">
<title>cluster_book</title>
<path fill="none" stroke="#d1d5db" d="M20,-1116C20,-1116 282.5,-1116 282.5,-1116 288.5,-1116 294.5,-1122 294.5,-1128 294.5,-1128 294.5,-1385 294.5,-1385 294.5,-1391 288.5,-1397 282.5,-1397 282.5,-1397 20,-1397 20,-1397 14,-1397 8,-1391 8,-1385 8,-1385 8,-1128 8,-1128 8,-1122 14,-1116 20,-1116"/>
<text xml:space="preserve" text-anchor="middle" x="151.25" y="-1383.5" font-family="Helvetica,sans-Serif" font-size="10.00">book</text>
</g>
<g id="clust4" class="cluster">
<title>cluster_email</title>
<path fill="none" stroke="#d1d5db" d="M123.5,-8C123.5,-8 395.5,-8 395.5,-8 401.5,-8 407.5,-14 407.5,-20 407.5,-20 407.5,-277 407.5,-277 407.5,-283 401.5,-289 395.5,-289 395.5,-289 123.5,-289 123.5,-289 117.5,-289 111.5,-283 111.5,-277 111.5,-277 111.5,-20 111.5,-20 111.5,-14 117.5,-8 123.5,-8"/>
<text xml:space="preserve" text-anchor="middle" x="259.5" y="-275.5" font-family="Helvetica,sans-Serif" font-size="10.00">email</text>
</g>
<g id="clust5" class="cluster">
<title>cluster_genre</title>
<path fill="none" stroke="#d1d5db" d="M236.5,-1405C236.5,-1405 499.12,-1405 499.12,-1405 505.12,-1405 511.12,-1411 511.12,-1417 511.12,-1417 511.12,-1674 511.12,-1674 511.12,-1680 505.12,-1686 499.12,-1686 499.12,-1686 236.5,-1686 236.5,-1686 230.5,-1686 224.5,-1680 224.5,-1674 224.5,-1674 224.5,-1417 224.5,-1417 224.5,-1411 230.5,-1405 236.5,-1405"/>
<text xml:space="preserve" text-anchor="middle" x="367.81" y="-1672.5" font-family="Helvetica,sans-Serif" font-size="10.00">genre</text>
</g>
<g id="clust6" class="cluster">
<title>cluster_kernel</title>
<path fill="none" stroke="#d1d5db" d="M236.5,-549C236.5,-549 593.25,-549 593.25,-549 599.25,-549 605.25,-555 605.25,-561 605.25,-561 605.25,-723 605.25,-723 605.25,-729 599.25,-735 593.25,-735 593.25,-735 236.5,-735 236.5,-735 230.5,-735 224.5,-729 224.5,-723 224.5,-723 224.5,-561 224.5,-561 224.5,-555 230.5,-549 236.5,-549"/>
<text xml:space="preserve" text-anchor="middle" x="414.88" y="-721.5" font-family="Helvetica,sans-Serif" font-size="10.00">kernel</text>
</g>
<g id="clust7" class="cluster">
<title>cluster_user</title>
<path fill="none" stroke="#d1d5db" d="M20,-321C20,-321 282.5,-321 282.5,-321 288.5,-321 294.5,-327 294.5,-333 294.5,-333 294.5,-529 294.5,-529 294.5,-535 288.5,-541 282.5,-541 282.5,-541 20,-541 20,-541 14,-541 8,-535 8,-529 8,-529 8,-333 8,-333 8,-327 14,-321 20,-321"/>
<text xml:space="preserve" text-anchor="middle" x="151.25" y="-527.5" font-family="Helvetica,sans-Serif" font-size="10.00">user</text>
</g>
<!-- account/public -->
<g id="node1" class="node">
<title>account/public</title>
<path fill="#f3f4f6" stroke="#374151" d="M58,-1914C58,-1914 28,-1914 28,-1914 22,-1914 16,-1908 16,-1902 16,-1902 16,-1890 16,-1890 16,-1884 22,-1878 28,-1878 28,-1878 58,-1878 58,-1878 64,-1878 70,-1884 70,-1890 70,-1890 70,-1902 70,-1902 70,-1908 64,-1914 58,-1914"/>
<text xml:space="preserve" text-anchor="middle" x="43" y="-1892.12" font-family="Helvetica,sans-Serif" font-size="10.00" fill="#111827">public</text>
</g>
<!-- account/application -->
<g id="node2" class="node">
<title>account/application</title>
<path fill="#dbeafe" stroke="#374151" d="M165.75,-1945C165.75,-1945 127.25,-1945 127.25,-1945 121.25,-1945 115.25,-1939 115.25,-1933 115.25,-1933 115.25,-1921 115.25,-1921 115.25,-1915 121.25,-1909 127.25,-1909 127.25,-1909 165.75,-1909 165.75,-1909 171.75,-1909 177.75,-1915 177.75,-1921 177.75,-1921 177.75,-1933 177.75,-1933 177.75,-1939 171.75,-1945 165.75,-1945"/>
<text xml:space="preserve" text-anchor="middle" x="146.5" y="-1923.12" font-family="Helvetica,sans-Serif" font-size="10.00" fill="#111827">application</text>
</g>
<!-- account/public&#45;&gt;account/application -->
<g id="edge4" class="edge">
<title>account/public&#45;&gt;account/application</title>
<path fill="none" stroke="#4b5563" d="M70.4,-1904.06C81.58,-1907.48 94.83,-1911.52 107.06,-1915.26"/>
<polygon fill="#4b5563" stroke="#4b5563" points="106.06,-1917.51 113.47,-1917.22 107.49,-1912.83 106.06,-1917.51"/>
</g>
<!-- account/domain -->
<g id="node3" class="node">
<title>account/domain</title>
<path fill="#dcfce7" stroke="#374151" d="M274.5,-1958C274.5,-1958 244.5,-1958 244.5,-1958 238.5,-1958 232.5,-1952 232.5,-1946 232.5,-1946 232.5,-1934 232.5,-1934 232.5,-1928 238.5,-1922 244.5,-1922 244.5,-1922 274.5,-1922 274.5,-1922 280.5,-1922 286.5,-1928 286.5,-1934 286.5,-1934 286.5,-1946 286.5,-1946 286.5,-1952 280.5,-1958 274.5,-1958"/>
<text xml:space="preserve" text-anchor="middle" x="259.5" y="-1936.12" font-family="Helvetica,sans-Serif" font-size="10.00" fill="#111827">domain</text>
</g>
<!-- account/public&#45;&gt;account/domain -->
<g id="edge5" class="edge">
<title>account/public&#45;&gt;account/domain</title>
<path fill="none" stroke="#4b5563" stroke-dasharray="1,5" d="M57.06,-1914.32C68.93,-1929.26 87.93,-1949.26 110,-1958 147.13,-1972.7 193.23,-1963.25 224.13,-1953.36"/>
<polygon fill="#4b5563" stroke="#4b5563" points="224.73,-1955.74 230.59,-1951.19 223.18,-1951.09 224.73,-1955.74"/>
</g>
<!-- account/presentation -->
<g id="node4" class="node">
<title>account/presentation</title>
<path fill="#fef9c3" stroke="#374151" d="M169.12,-1823C169.12,-1823 123.88,-1823 123.88,-1823 117.88,-1823 111.88,-1817 111.88,-1811 111.88,-1811 111.88,-1799 111.88,-1799 111.88,-1793 117.88,-1787 123.88,-1787 123.88,-1787 169.12,-1787 169.12,-1787 175.12,-1787 181.12,-1793 181.12,-1799 181.12,-1799 181.12,-1811 181.12,-1811 181.12,-1817 175.12,-1823 169.12,-1823"/>
<text xml:space="preserve" text-anchor="middle" x="146.5" y="-1801.12" font-family="Helvetica,sans-Serif" font-size="10.00" fill="#111827">presentation</text>
</g>
<!-- account/public&#45;&gt;account/presentation -->
<g id="edge6" class="edge">
<title>account/public&#45;&gt;account/presentation</title>
<path fill="none" stroke="#4b5563" stroke-dasharray="1,5" d="M54.46,-1877.6C66.16,-1863.5 85.87,-1845.14 105.22,-1827.78"/>
<polygon fill="#4b5563" stroke="#4b5563" points="106.76,-1829.69 110.35,-1823.19 103.5,-1826.03 106.76,-1829.69"/>
</g>
<!-- account/transport -->
<g id="node5" class="node">
<title>account/transport</title>
<path fill="#ede9fe" stroke="#374151" d="M161.62,-1884C161.62,-1884 131.38,-1884 131.38,-1884 125.38,-1884 119.38,-1878 119.38,-1872 119.38,-1872 119.38,-1860 119.38,-1860 119.38,-1854 125.38,-1848 131.38,-1848 131.38,-1848 161.62,-1848 161.62,-1848 167.62,-1848 173.62,-1854 173.62,-1860 173.62,-1860 173.62,-1872 173.62,-1872 173.62,-1878 167.62,-1884 161.62,-1884"/>
<text xml:space="preserve" text-anchor="middle" x="146.5" y="-1862.12" font-family="Helvetica,sans-Serif" font-size="10.00" fill="#111827">transport</text>
</g>
<!-- account/public&#45;&gt;account/transport -->
<g id="edge7" class="edge">
<title>account/public&#45;&gt;account/transport</title>
<path fill="none" stroke="#4b5563" stroke-dasharray="1,5" d="M70.4,-1888.2C82.76,-1884.54 97.64,-1880.15 110.88,-1876.23"/>
<polygon fill="#4b5563" stroke="#4b5563" points="111.41,-1878.63 117.43,-1874.3 110.02,-1873.93 111.41,-1878.63"/>
</g>
<!-- account/application&#45;&gt;account/domain -->
<g id="edge1" class="edge">
<title>account/application&#45;&gt;account/domain</title>
<path fill="none" stroke="#4b5563" d="M178.13,-1930.59C192.29,-1932.25 209.17,-1934.22 223.8,-1935.94"/>
<polygon fill="#4b5563" stroke="#4b5563" points="223.38,-1938.35 230.62,-1936.73 223.95,-1933.49 223.38,-1938.35"/>
</g>
<!-- account/presentation&#45;&gt;account/public -->
<g id="edge2" class="edge">
<title>account/presentation&#45;&gt;account/public</title>
<path fill="none" stroke="#4b5563" d="M136.11,-1823.38C128.93,-1831.83 118.8,-1840.66 110,-1848.5 99.08,-1858.23 87.24,-1868.94 76.65,-1877.96"/>
<polygon fill="#4b5563" stroke="#4b5563" points="75.18,-1875.99 71.39,-1882.36 78.33,-1879.75 75.18,-1875.99"/>
</g>
<!-- auth/public -->
<g id="node6" class="node">
<title>auth/public</title>
<path fill="#f3f4f6" stroke="#374151" d="M274.5,-989C274.5,-989 244.5,-989 244.5,-989 238.5,-989 232.5,-983 232.5,-977 232.5,-977 232.5,-965 232.5,-965 232.5,-959 238.5,-953 244.5,-953 244.5,-953 274.5,-953 274.5,-953 280.5,-953 286.5,-959 286.5,-965 286.5,-965 286.5,-977 286.5,-977 286.5,-983 280.5,-989 274.5,-989"/>
<text xml:space="preserve" text-anchor="middle" x="259.5" y="-967.12" font-family="Helvetica,sans-Serif" font-size="10.00" fill="#111827">public</text>
</g>
<!-- account/presentation&#45;&gt;auth/public -->
<g id="edge3" class="edge">
<title>account/presentation&#45;&gt;auth/public</title>
<path fill="none" stroke="#4b5563" d="M149.13,-1786.76C157.72,-1691.07 198.35,-1246.15 223,-1110 230.2,-1070.24 242.53,-1025.06 250.6,-997.29"/>
<polygon fill="#4b5563" stroke="#4b5563" points="252.91,-998.11 252.53,-990.71 248.21,-996.73 252.91,-998.11"/>
</g>
<!-- account/transport&#45;&gt;auth/public -->
<g id="edge8" class="edge">
<title>account/transport&#45;&gt;auth/public</title>
<path fill="none" stroke="#4b5563" stroke-dasharray="5,2" d="M173.92,-1848.14C177.54,-1844.55 180.77,-1840.48 183,-1836 255.04,-1691.37 198.45,-1269.7 223,-1110 229.14,-1070.07 241.75,-1024.93 250.17,-997.22"/>
<polygon fill="#4b5563" stroke="#4b5563" points="252.47,-998.06 252.19,-990.65 247.79,-996.62 252.47,-998.06"/>
</g>
<!-- kernel/transport -->
<g id="node34" class="node">
<title>kernel/transport</title>
<path fill="#ede9fe" stroke="#374151" d="M491.25,-708C491.25,-708 461,-708 461,-708 455,-708 449,-702 449,-696 449,-696 449,-684 449,-684 449,-678 455,-672 461,-672 461,-672 491.25,-672 491.25,-672 497.25,-672 503.25,-678 503.25,-684 503.25,-684 503.25,-696 503.25,-696 503.25,-702 497.25,-708 491.25,-708"/>
<text xml:space="preserve" text-anchor="middle" x="476.12" y="-686.12" font-family="Helvetica,sans-Serif" font-size="10.00" fill="#111827">transport</text>
</g>
<!-- account/transport&#45;&gt;kernel/transport -->
<g id="edge9" class="edge">
<title>account/transport&#45;&gt;kernel/transport</title>
<path fill="none" stroke="#4b5563" d="M169.93,-1847.68C203.96,-1818.41 267.67,-1757.45 296,-1690 346.55,-1569.64 310.87,-1527.11 336,-1399 361.17,-1270.69 383.89,-1242.32 409,-1114 434.24,-985.02 427.25,-950.62 449,-821 455.13,-784.47 463.78,-742.53 469.42,-716.15"/>
<polygon fill="#4b5563" stroke="#4b5563" points="471.74,-717 470.82,-709.64 466.95,-715.97 471.74,-717"/>
</g>
<!-- auth/application -->
<g id="node7" class="node">
<title>auth/application</title>
<path fill="#dbeafe" stroke="#374151" d="M391.75,-1020C391.75,-1020 353.25,-1020 353.25,-1020 347.25,-1020 341.25,-1014 341.25,-1008 341.25,-1008 341.25,-996 341.25,-996 341.25,-990 347.25,-984 353.25,-984 353.25,-984 391.75,-984 391.75,-984 397.75,-984 403.75,-990 403.75,-996 403.75,-996 403.75,-1008 403.75,-1008 403.75,-1014 397.75,-1020 391.75,-1020"/>
<text xml:space="preserve" text-anchor="middle" x="372.5" y="-998.12" font-family="Helvetica,sans-Serif" font-size="10.00" fill="#111827">application</text>
</g>
<!-- auth/public&#45;&gt;auth/application -->
<g id="edge19" class="edge">
<title>auth/public&#45;&gt;auth/application</title>
<path fill="none" stroke="#4b5563" d="M286.81,-978.35C300.67,-982.22 317.94,-987.04 333.26,-991.32"/>
<polygon fill="#4b5563" stroke="#4b5563" points="332.2,-993.57 339.6,-993.09 333.52,-988.85 332.2,-993.57"/>
</g>
<!-- auth/domain -->
<g id="node8" class="node">
<title>auth/domain</title>
<path fill="#dcfce7" stroke="#374151" d="M491.12,-871C491.12,-871 461.12,-871 461.12,-871 455.12,-871 449.12,-865 449.12,-859 449.12,-859 449.12,-847 449.12,-847 449.12,-841 455.12,-835 461.12,-835 461.12,-835 491.12,-835 491.12,-835 497.12,-835 503.12,-841 503.12,-847 503.12,-847 503.12,-859 503.12,-859 503.12,-865 497.12,-871 491.12,-871"/>
<text xml:space="preserve" text-anchor="middle" x="476.12" y="-849.12" font-family="Helvetica,sans-Serif" font-size="10.00" fill="#111827">domain</text>
</g>
<!-- auth/public&#45;&gt;auth/domain -->
<g id="edge20" class="edge">
<title>auth/public&#45;&gt;auth/domain</title>
<path fill="none" stroke="#4b5563" stroke-dasharray="1,5" d="M280.07,-952.57C294.62,-939.61 315.43,-922.58 336,-911 366.14,-894.03 377.09,-897.35 409,-884 419.53,-879.59 430.84,-874.45 441.07,-869.64"/>
<polygon fill="#4b5563" stroke="#4b5563" points="442.01,-871.9 447.28,-866.68 439.91,-867.47 442.01,-871.9"/>
</g>
<!-- auth/infrastructure -->
<g id="node9" class="node">
<title>auth/infrastructure</title>
<path fill="#ffedd5" stroke="#374151" d="M397,-959C397,-959 348,-959 348,-959 342,-959 336,-953 336,-947 336,-947 336,-935 336,-935 336,-929 342,-923 348,-923 348,-923 397,-923 397,-923 403,-923 409,-929 409,-935 409,-935 409,-947 409,-947 409,-953 403,-959 397,-959"/>
<text xml:space="preserve" text-anchor="middle" x="372.5" y="-937.12" font-family="Helvetica,sans-Serif" font-size="10.00" fill="#111827">infrastructure</text>
</g>
<!-- auth/public&#45;&gt;auth/infrastructure -->
<g id="edge21" class="edge">
<title>auth/public&#45;&gt;auth/infrastructure</title>
<path fill="none" stroke="#4b5563" d="M286.81,-955.78C299.02,-951.31 313.88,-946.93 327.72,-943.65"/>
<polygon fill="#4b5563" stroke="#4b5563" points="327.96,-946.1 334.25,-942.17 326.88,-941.32 327.96,-946.1"/>
</g>
<!-- auth/presentation -->
<g id="node10" class="node">
<title>auth/presentation</title>
<path fill="#fef9c3" stroke="#374151" d="M395.12,-1081C395.12,-1081 349.88,-1081 349.88,-1081 343.88,-1081 337.88,-1075 337.88,-1069 337.88,-1069 337.88,-1057 337.88,-1057 337.88,-1051 343.88,-1045 349.88,-1045 349.88,-1045 395.12,-1045 395.12,-1045 401.12,-1045 407.12,-1051 407.12,-1057 407.12,-1057 407.12,-1069 407.12,-1069 407.12,-1075 401.12,-1081 395.12,-1081"/>
<text xml:space="preserve" text-anchor="middle" x="372.5" y="-1059.12" font-family="Helvetica,sans-Serif" font-size="10.00" fill="#111827">presentation</text>
</g>
<!-- auth/public&#45;&gt;auth/presentation -->
<g id="edge22" class="edge">
<title>auth/public&#45;&gt;auth/presentation</title>
<path fill="none" stroke="#4b5563" d="M286.81,-984.69C306.62,-999.22 333.37,-1021.63 351.47,-1038.99"/>
<polygon fill="#4b5563" stroke="#4b5563" points="349.46,-1040.45 356.17,-1043.61 352.89,-1036.95 349.46,-1040.45"/>
</g>
<!-- auth/transport -->
<g id="node11" class="node">
<title>auth/transport</title>
<path fill="#ede9fe" stroke="#374151" d="M387.62,-871C387.62,-871 357.38,-871 357.38,-871 351.38,-871 345.38,-865 345.38,-859 345.38,-859 345.38,-847 345.38,-847 345.38,-841 351.38,-835 357.38,-835 357.38,-835 387.62,-835 387.62,-835 393.62,-835 399.62,-841 399.62,-847 399.62,-847 399.62,-859 399.62,-859 399.62,-865 393.62,-871 387.62,-871"/>
<text xml:space="preserve" text-anchor="middle" x="372.5" y="-849.12" font-family="Helvetica,sans-Serif" font-size="10.00" fill="#111827">transport</text>
</g>
<!-- auth/public&#45;&gt;auth/transport -->
<g id="edge23" class="edge">
<title>auth/public&#45;&gt;auth/transport</title>
<path fill="none" stroke="#4b5563" d="M269.99,-952.64C284.25,-932.8 312.09,-902.78 336,-877.5 337.1,-876.34 338.22,-875.15 339.36,-873.96"/>
<polygon fill="#4b5563" stroke="#4b5563" points="340.94,-875.85 344.04,-869.11 337.42,-872.44 340.94,-875.85"/>
</g>
<!-- kernel/domain -->
<g id="node32" class="node">
<title>kernel/domain</title>
<path fill="#dcfce7" stroke="#374151" d="M585.25,-708C585.25,-708 555.25,-708 555.25,-708 549.25,-708 543.25,-702 543.25,-696 543.25,-696 543.25,-684 543.25,-684 543.25,-678 549.25,-672 555.25,-672 555.25,-672 585.25,-672 585.25,-672 591.25,-672 597.25,-678 597.25,-684 597.25,-684 597.25,-696 597.25,-696 597.25,-702 591.25,-708 585.25,-708"/>
<text xml:space="preserve" text-anchor="middle" x="570.25" y="-686.12" font-family="Helvetica,sans-Serif" font-size="10.00" fill="#111827">domain</text>
</g>
<!-- auth/domain&#45;&gt;kernel/domain -->
<g id="edge10" class="edge">
<title>auth/domain&#45;&gt;kernel/domain</title>
<path fill="none" stroke="#4b5563" d="M495.98,-834.75C501.28,-829.05 506.77,-822.53 511.12,-816 532.55,-783.84 549.95,-742.51 559.95,-716.13"/>
<polygon fill="#4b5563" stroke="#4b5563" points="562.14,-717.29 562.29,-709.87 557.54,-715.57 562.14,-717.29"/>
</g>
<!-- auth/infrastructure&#45;&gt;auth/public -->
<g id="edge12" class="edge">
<title>auth/infrastructure&#45;&gt;auth/public</title>
<path fill="none" stroke="#4b5563" d="M335.72,-959.5C322.67,-963.78 307.95,-967.73 295.01,-970.42"/>
<polygon fill="#4b5563" stroke="#4b5563" points="294.7,-967.99 288.29,-971.72 295.63,-972.8 294.7,-967.99"/>
</g>
<!-- auth/infrastructure&#45;&gt;auth/domain -->
<g id="edge11" class="edge">
<title>auth/infrastructure&#45;&gt;auth/domain</title>
<path fill="none" stroke="#4b5563" d="M394.56,-922.77C409.95,-909.43 430.98,-891.23 447.69,-876.76"/>
<polygon fill="#4b5563" stroke="#4b5563" points="449.26,-878.64 452.95,-872.2 446.06,-874.93 449.26,-878.64"/>
</g>
<!-- auth/infrastructure&#45;&gt;kernel/domain -->
<g id="edge13" class="edge">
<title>auth/infrastructure&#45;&gt;kernel/domain</title>
<path fill="none" stroke="#4b5563" d="M409.32,-942.32C440.28,-941.45 484.18,-935.12 511.12,-909 538.75,-882.22 558.09,-768.5 565.68,-716.34"/>
<polygon fill="#4b5563" stroke="#4b5563" points="568.06,-717 566.63,-709.72 563.21,-716.31 568.06,-717"/>
</g>
<!-- kernel/infrastructure -->
<g id="node33" class="node">
<title>kernel/infrastructure</title>
<path fill="#ffedd5" stroke="#374151" d="M397,-708C397,-708 348,-708 348,-708 342,-708 336,-702 336,-696 336,-696 336,-684 336,-684 336,-678 342,-672 348,-672 348,-672 397,-672 397,-672 403,-672 409,-678 409,-684 409,-684 409,-696 409,-696 409,-702 403,-708 397,-708"/>
<text xml:space="preserve" text-anchor="middle" x="372.5" y="-686.12" font-family="Helvetica,sans-Serif" font-size="10.00" fill="#111827">infrastructure</text>
</g>
<!-- auth/infrastructure&#45;&gt;kernel/infrastructure -->
<g id="edge14" class="edge">
<title>auth/infrastructure&#45;&gt;kernel/infrastructure</title>
<path fill="none" stroke="#4b5563" d="M342.62,-922.67C332.18,-914.54 321.65,-903.97 316,-891.5 288.6,-831.07 329.05,-754.31 354.49,-715.27"/>
<polygon fill="#4b5563" stroke="#4b5563" points="356.36,-716.88 358.2,-709.7 352.28,-714.16 356.36,-716.88"/>
</g>
<!-- auth/infrastructure&#45;&gt;kernel/transport -->
<g id="edge15" class="edge">
<title>auth/infrastructure&#45;&gt;kernel/transport</title>
<path fill="none" stroke="#4b5563" d="M386.46,-922.61C393.73,-911.73 402.61,-897.48 409,-884 436.28,-826.46 457.74,-754.56 468.18,-716.5"/>
<polygon fill="#4b5563" stroke="#4b5563" points="470.49,-717.32 469.96,-709.92 465.76,-716.04 470.49,-717.32"/>
</g>
<!-- auth/presentation&#45;&gt;account/public -->
<g id="edge16" class="edge">
<title>auth/presentation&#45;&gt;account/public</title>
<path fill="none" stroke="#4b5563" d="M369.35,-1081.19C363.44,-1131.61 346.67,-1277.46 336,-1399 330.43,-1462.47 342.6,-1927.55 296,-1971 235.54,-2027.38 185.26,-2003.22 110,-1969 88.23,-1959.1 70.53,-1938.2 58.96,-1921.28"/>
<polygon fill="#4b5563" stroke="#4b5563" points="61.11,-1920.09 55.22,-1915.59 57.01,-1922.78 61.11,-1920.09"/>
</g>
<!-- auth/presentation&#45;&gt;auth/public -->
<g id="edge17" class="edge">
<title>auth/presentation&#45;&gt;auth/public</title>
<path fill="none" stroke="#4b5563" d="M338.96,-1044.65C319.91,-1030.19 296.48,-1010.35 280.21,-994.7"/>
<polygon fill="#4b5563" stroke="#4b5563" points="282.35,-993.37 275.64,-990.2 278.91,-996.86 282.35,-993.37"/>
</g>
<!-- auth/presentation&#45;&gt;kernel/domain -->
<g id="edge18" class="edge">
<title>auth/presentation&#45;&gt;kernel/domain</title>
<path fill="none" stroke="#4b5563" d="M404.04,-1044.55C435.83,-1023.7 484.61,-986.75 511.12,-942 554.64,-868.54 565.58,-765.16 568.33,-716.85"/>
<polygon fill="#4b5563" stroke="#4b5563" points="570.77,-717.12 568.68,-710 565.87,-716.87 570.77,-717.12"/>
</g>
<!-- auth/transport&#45;&gt;auth/public -->
<g id="edge25" class="edge">
<title>auth/transport&#45;&gt;auth/public</title>
<path fill="none" stroke="#4b5563" d="M363.29,-871.37C356.07,-881.47 345.3,-892.67 336,-902.5 321.8,-917.52 306.2,-934.21 292.9,-947.6"/>
<polygon fill="#4b5563" stroke="#4b5563" points="291.27,-945.76 288.03,-952.43 294.72,-949.24 291.27,-945.76"/>
</g>
<!-- auth/transport&#45;&gt;auth/domain -->
<g id="edge24" class="edge">
<title>auth/transport&#45;&gt;auth/domain</title>
<path fill="none" stroke="#4b5563" d="M399.94,-853C412.29,-853 427.15,-853 440.4,-853"/>
<polygon fill="#4b5563" stroke="#4b5563" points="440.31,-855.45 447.31,-853 440.31,-850.55 440.31,-855.45"/>
</g>
<!-- kernel/public -->
<g id="node30" class="node">
<title>kernel/public</title>
<path fill="#f3f4f6" stroke="#374151" d="M274.5,-606C274.5,-606 244.5,-606 244.5,-606 238.5,-606 232.5,-600 232.5,-594 232.5,-594 232.5,-582 232.5,-582 232.5,-576 238.5,-570 244.5,-570 244.5,-570 274.5,-570 274.5,-570 280.5,-570 286.5,-576 286.5,-582 286.5,-582 286.5,-594 286.5,-594 286.5,-600 280.5,-606 274.5,-606"/>
<text xml:space="preserve" text-anchor="middle" x="259.5" y="-584.12" font-family="Helvetica,sans-Serif" font-size="10.00" fill="#111827">public</text>
</g>
<!-- auth/transport&#45;&gt;kernel/public -->
<g id="edge27" class="edge">
<title>auth/transport&#45;&gt;kernel/public</title>
<path fill="none" stroke="#4b5563" d="M363.82,-834.66C344.47,-788.47 293.7,-667.27 271.34,-613.88"/>
<polygon fill="#4b5563" stroke="#4b5563" points="273.68,-613.12 268.71,-607.61 269.16,-615.01 273.68,-613.12"/>
</g>
<!-- auth/transport&#45;&gt;kernel/domain -->
<g id="edge26" class="edge">
<title>auth/transport&#45;&gt;kernel/domain</title>
<path fill="none" stroke="#4b5563" d="M399.94,-870.49C429.74,-887.79 478.31,-908.42 511.12,-884 538.2,-863.85 557.35,-764.83 565.24,-716.55"/>
<polygon fill="#4b5563" stroke="#4b5563" points="567.61,-717.23 566.3,-709.93 562.78,-716.46 567.61,-717.23"/>
</g>
<!-- auth/transport&#45;&gt;kernel/transport -->
<g id="edge28" class="edge">
<title>auth/transport&#45;&gt;kernel/transport</title>
<path fill="none" stroke="#4b5563" d="M384.96,-834.62C403.2,-805.36 438.88,-748.14 459.46,-715.12"/>
<polygon fill="#4b5563" stroke="#4b5563" points="461.44,-716.59 463.06,-709.35 457.28,-713.99 461.44,-716.59"/>
</g>
<!-- book/public -->
<g id="node12" class="node">
<title>book/public</title>
<path fill="#f3f4f6" stroke="#374151" d="M58,-1282C58,-1282 28,-1282 28,-1282 22,-1282 16,-1276 16,-1270 16,-1270 16,-1258 16,-1258 16,-1252 22,-1246 28,-1246 28,-1246 58,-1246 58,-1246 64,-1246 70,-1252 70,-1258 70,-1258 70,-1270 70,-1270 70,-1276 64,-1282 58,-1282"/>
<text xml:space="preserve" text-anchor="middle" x="43" y="-1260.12" font-family="Helvetica,sans-Serif" font-size="10.00" fill="#111827">public</text>
</g>
<!-- book/application -->
<g id="node13" class="node">
<title>book/application</title>
<path fill="#dbeafe" stroke="#374151" d="M165.75,-1343C165.75,-1343 127.25,-1343 127.25,-1343 121.25,-1343 115.25,-1337 115.25,-1331 115.25,-1331 115.25,-1319 115.25,-1319 115.25,-1313 121.25,-1307 127.25,-1307 127.25,-1307 165.75,-1307 165.75,-1307 171.75,-1307 177.75,-1313 177.75,-1319 177.75,-1319 177.75,-1331 177.75,-1331 177.75,-1337 171.75,-1343 165.75,-1343"/>
<text xml:space="preserve" text-anchor="middle" x="146.5" y="-1321.12" font-family="Helvetica,sans-Serif" font-size="10.00" fill="#111827">application</text>
</g>
<!-- book/public&#45;&gt;book/application -->
<g id="edge40" class="edge">
<title>book/public&#45;&gt;book/application</title>
<path fill="none" stroke="#4b5563" d="M70.4,-1279.87C81.79,-1286.71 95.33,-1294.85 107.75,-1302.31"/>
<polygon fill="#4b5563" stroke="#4b5563" points="106.35,-1304.33 113.62,-1305.84 108.88,-1300.13 106.35,-1304.33"/>
</g>
<!-- book/domain -->
<g id="node14" class="node">
<title>book/domain</title>
<path fill="#dcfce7" stroke="#374151" d="M274.5,-1370C274.5,-1370 244.5,-1370 244.5,-1370 238.5,-1370 232.5,-1364 232.5,-1358 232.5,-1358 232.5,-1346 232.5,-1346 232.5,-1340 238.5,-1334 244.5,-1334 244.5,-1334 274.5,-1334 274.5,-1334 280.5,-1334 286.5,-1340 286.5,-1346 286.5,-1346 286.5,-1358 286.5,-1358 286.5,-1364 280.5,-1370 274.5,-1370"/>
<text xml:space="preserve" text-anchor="middle" x="259.5" y="-1348.12" font-family="Helvetica,sans-Serif" font-size="10.00" fill="#111827">domain</text>
</g>
<!-- book/public&#45;&gt;book/domain -->
<g id="edge41" class="edge">
<title>book/public&#45;&gt;book/domain</title>
<path fill="none" stroke="#4b5563" stroke-dasharray="1,5" d="M50.94,-1282.23C60.47,-1304.34 79.92,-1340.56 110,-1356 145.59,-1374.27 192.58,-1368.93 224.09,-1361.88"/>
<polygon fill="#4b5563" stroke="#4b5563" points="224.42,-1364.32 230.67,-1360.32 223.29,-1359.55 224.42,-1364.32"/>
</g>
<!-- book/infrastructure -->
<g id="node15" class="node">
<title>book/infrastructure</title>
<path fill="#ffedd5" stroke="#374151" d="M171,-1160C171,-1160 122,-1160 122,-1160 116,-1160 110,-1154 110,-1148 110,-1148 110,-1136 110,-1136 110,-1130 116,-1124 122,-1124 122,-1124 171,-1124 171,-1124 177,-1124 183,-1130 183,-1136 183,-1136 183,-1148 183,-1148 183,-1154 177,-1160 171,-1160"/>
<text xml:space="preserve" text-anchor="middle" x="146.5" y="-1138.12" font-family="Helvetica,sans-Serif" font-size="10.00" fill="#111827">infrastructure</text>
</g>
<!-- book/public&#45;&gt;book/infrastructure -->
<g id="edge42" class="edge">
<title>book/public&#45;&gt;book/infrastructure</title>
<path fill="none" stroke="#4b5563" d="M55.54,-1245.64C67.91,-1226.58 88.68,-1196.34 110,-1173 112.24,-1170.55 114.65,-1168.1 117.14,-1165.72"/>
<polygon fill="#4b5563" stroke="#4b5563" points="118.42,-1167.86 121.89,-1161.31 115.09,-1164.27 118.42,-1167.86"/>
</g>
<!-- book/presentation -->
<g id="node16" class="node">
<title>book/presentation</title>
<path fill="#fef9c3" stroke="#374151" d="M169.12,-1282C169.12,-1282 123.88,-1282 123.88,-1282 117.88,-1282 111.88,-1276 111.88,-1270 111.88,-1270 111.88,-1258 111.88,-1258 111.88,-1252 117.88,-1246 123.88,-1246 123.88,-1246 169.12,-1246 169.12,-1246 175.12,-1246 181.12,-1252 181.12,-1258 181.12,-1258 181.12,-1270 181.12,-1270 181.12,-1276 175.12,-1282 169.12,-1282"/>
<text xml:space="preserve" text-anchor="middle" x="146.5" y="-1260.12" font-family="Helvetica,sans-Serif" font-size="10.00" fill="#111827">presentation</text>
</g>
<!-- book/public&#45;&gt;book/presentation -->
<g id="edge43" class="edge">
<title>book/public&#45;&gt;book/presentation</title>
<path fill="none" stroke="#4b5563" stroke-dasharray="1,5" d="M70.4,-1255.66C80.42,-1254.74 92.09,-1254.43 103.21,-1254.74"/>
<polygon fill="#4b5563" stroke="#4b5563" points="102.96,-1257.18 110.06,-1255.03 103.17,-1252.29 102.96,-1257.18"/>
</g>
<!-- book/transport -->
<g id="node17" class="node">
<title>book/transport</title>
<path fill="#ede9fe" stroke="#374151" d="M161.62,-1221C161.62,-1221 131.38,-1221 131.38,-1221 125.38,-1221 119.38,-1215 119.38,-1209 119.38,-1209 119.38,-1197 119.38,-1197 119.38,-1191 125.38,-1185 131.38,-1185 131.38,-1185 161.62,-1185 161.62,-1185 167.62,-1185 173.62,-1191 173.62,-1197 173.62,-1197 173.62,-1209 173.62,-1209 173.62,-1215 167.62,-1221 161.62,-1221"/>
<text xml:space="preserve" text-anchor="middle" x="146.5" y="-1199.12" font-family="Helvetica,sans-Serif" font-size="10.00" fill="#111827">transport</text>
</g>
<!-- book/public&#45;&gt;book/transport -->
<g id="edge44" class="edge">
<title>book/public&#45;&gt;book/transport</title>
<path fill="none" stroke="#4b5563" stroke-dasharray="1,5" d="M70.4,-1248.13C82.99,-1240.57 98.2,-1231.43 111.63,-1223.36"/>
<polygon fill="#4b5563" stroke="#4b5563" points="112.84,-1225.49 117.58,-1219.78 110.32,-1221.29 112.84,-1225.49"/>
</g>
<!-- book/application&#45;&gt;book/domain -->
<g id="edge29" class="edge">
<title>book/application&#45;&gt;book/domain</title>
<path fill="none" stroke="#4b5563" d="M178.13,-1332.45C192.42,-1335.93 209.49,-1340.08 224.21,-1343.66"/>
<polygon fill="#4b5563" stroke="#4b5563" points="223.27,-1345.95 230.65,-1345.23 224.43,-1341.19 223.27,-1345.95"/>
</g>
<!-- book/application&#45;&gt;kernel/domain -->
<g id="edge30" class="edge">
<title>book/application&#45;&gt;kernel/domain</title>
<path fill="none" stroke="#4b5563" d="M178.21,-1319.02C258.9,-1302.59 473.31,-1254.1 511.12,-1196 563.34,-1115.77 568.81,-809.3 569.26,-716.67"/>
<polygon fill="#4b5563" stroke="#4b5563" points="571.7,-716.91 569.28,-709.9 566.8,-716.9 571.7,-716.91"/>
</g>
<!-- book/domain&#45;&gt;kernel/domain -->
<g id="edge31" class="edge">
<title>book/domain&#45;&gt;kernel/domain</title>
<path fill="none" stroke="#4b5563" d="M286.76,-1357.37C338.18,-1366.19 452.28,-1377.1 511.12,-1315 552.86,-1270.96 565.97,-830.49 568.67,-716.71"/>
<polygon fill="#4b5563" stroke="#4b5563" points="571.12,-716.77 568.84,-709.71 566.22,-716.65 571.12,-716.77"/>
</g>
<!-- genre/infrastructure -->
<g id="node27" class="node">
<title>genre/infrastructure</title>
<path fill="#ffedd5" stroke="#374151" d="M397,-1659C397,-1659 348,-1659 348,-1659 342,-1659 336,-1653 336,-1647 336,-1647 336,-1635 336,-1635 336,-1629 342,-1623 348,-1623 348,-1623 397,-1623 397,-1623 403,-1623 409,-1629 409,-1635 409,-1635 409,-1647 409,-1647 409,-1653 403,-1659 397,-1659"/>
<text xml:space="preserve" text-anchor="middle" x="372.5" y="-1637.12" font-family="Helvetica,sans-Serif" font-size="10.00" fill="#111827">infrastructure</text>
</g>
<!-- book/infrastructure&#45;&gt;genre/infrastructure -->
<g id="edge32" class="edge">
<title>book/infrastructure&#45;&gt;genre/infrastructure</title>
<path fill="none" stroke="#4b5563" d="M173.4,-1160.31C177.17,-1164.08 180.6,-1168.35 183,-1173 263.82,-1329.36 122.92,-1422.21 223,-1567 247.26,-1602.1 293.16,-1621.35 327.54,-1631.35"/>
<polygon fill="#4b5563" stroke="#4b5563" points="326.71,-1633.66 334.11,-1633.18 328.02,-1628.94 326.71,-1633.66"/>
</g>
<!-- book/infrastructure&#45;&gt;kernel/domain -->
<g id="edge33" class="edge">
<title>book/infrastructure&#45;&gt;kernel/domain</title>
<path fill="none" stroke="#4b5563" d="M183.45,-1152.2C256.06,-1170.38 420.92,-1199 511.12,-1114 568.83,-1059.62 570.72,-801.16 569.75,-716.74"/>
<polygon fill="#4b5563" stroke="#4b5563" points="572.2,-716.93 569.66,-709.97 567.3,-717 572.2,-716.93"/>
</g>
<!-- book/infrastructure&#45;&gt;kernel/infrastructure -->
<g id="edge34" class="edge">
<title>book/infrastructure&#45;&gt;kernel/infrastructure</title>
<path fill="none" stroke="#4b5563" d="M147.47,-1123.72C147.77,-1044.87 153.41,-735.23 223,-676 251.57,-651.68 295.37,-659.38 328.01,-670.63"/>
<polygon fill="#4b5563" stroke="#4b5563" points="326.79,-672.8 334.2,-672.88 328.46,-668.19 326.79,-672.8"/>
</g>
<!-- book/presentation&#45;&gt;auth/public -->
<g id="edge35" class="edge">
<title>book/presentation&#45;&gt;auth/public</title>
<path fill="none" stroke="#4b5563" d="M173.08,-1245.66C176.8,-1242.13 180.28,-1238.2 183,-1234 196.1,-1213.76 235.88,-1060.31 251.81,-997.59"/>
<polygon fill="#4b5563" stroke="#4b5563" points="254.17,-998.22 253.52,-990.83 249.42,-997.02 254.17,-998.22"/>
</g>
<!-- book/presentation&#45;&gt;book/public -->
<g id="edge36" class="edge">
<title>book/presentation&#45;&gt;book/public</title>
<path fill="none" stroke="#4b5563" d="M111.57,-1272.9C100.98,-1273.52 89.3,-1273.53 78.66,-1272.94"/>
<polygon fill="#4b5563" stroke="#4b5563" points="79.07,-1270.52 71.91,-1272.45 78.72,-1275.4 79.07,-1270.52"/>
</g>
<!-- genre/public -->
<g id="node24" class="node">
<title>genre/public</title>
<path fill="#f3f4f6" stroke="#374151" d="M274.5,-1554C274.5,-1554 244.5,-1554 244.5,-1554 238.5,-1554 232.5,-1548 232.5,-1542 232.5,-1542 232.5,-1530 232.5,-1530 232.5,-1524 238.5,-1518 244.5,-1518 244.5,-1518 274.5,-1518 274.5,-1518 280.5,-1518 286.5,-1524 286.5,-1530 286.5,-1530 286.5,-1542 286.5,-1542 286.5,-1548 280.5,-1554 274.5,-1554"/>
<text xml:space="preserve" text-anchor="middle" x="259.5" y="-1532.12" font-family="Helvetica,sans-Serif" font-size="10.00" fill="#111827">public</text>
</g>
<!-- book/presentation&#45;&gt;genre/public -->
<g id="edge37" class="edge">
<title>book/presentation&#45;&gt;genre/public</title>
<path fill="none" stroke="#4b5563" d="M172.26,-1282.41C176.26,-1286.23 180.05,-1290.48 183,-1295 195.02,-1313.42 234.57,-1450.99 251.12,-1509.64"/>
<polygon fill="#4b5563" stroke="#4b5563" points="248.72,-1510.17 252.98,-1516.24 253.44,-1508.84 248.72,-1510.17"/>
</g>
<!-- book/presentation&#45;&gt;kernel/public -->
<g id="edge39" class="edge">
<title>book/presentation&#45;&gt;kernel/public</title>
<path fill="none" stroke="#4b5563" d="M174.11,-1245.71C177.61,-1242.21 180.75,-1238.29 183,-1234 225.81,-1152.33 211.61,-912.5 223,-821 232.34,-745.97 246.69,-657.87 253.95,-614.65"/>
<polygon fill="#4b5563" stroke="#4b5563" points="256.35,-615.18 255.1,-607.87 251.52,-614.36 256.35,-615.18"/>
</g>
<!-- book/presentation&#45;&gt;kernel/domain -->
<g id="edge38" class="edge">
<title>book/presentation&#45;&gt;kernel/domain</title>
<path fill="none" stroke="#4b5563" d="M181.55,-1264.92C255.06,-1264.85 428.65,-1253.28 511.12,-1151 565.53,-1083.54 569.55,-804.55 569.44,-716.65"/>
<polygon fill="#4b5563" stroke="#4b5563" points="571.89,-716.79 569.42,-709.8 566.99,-716.81 571.89,-716.79"/>
</g>
<!-- book/transport&#45;&gt;auth/public -->
<g id="edge45" class="edge">
<title>book/transport&#45;&gt;auth/public</title>
<path fill="none" stroke="#4b5563" stroke-dasharray="5,2" d="M172.44,-1184.81C176.32,-1181.21 180.03,-1177.22 183,-1173 222.34,-1117.13 243.96,-1038.24 253.13,-997.56"/>
<polygon fill="#4b5563" stroke="#4b5563" points="255.47,-998.33 254.58,-990.96 250.69,-997.28 255.47,-998.33"/>
</g>
<!-- book/transport&#45;&gt;book/domain -->
<g id="edge46" class="edge">
<title>book/transport&#45;&gt;book/domain</title>
<path fill="none" stroke="#4b5563" d="M170.57,-1221.44C174.91,-1225.38 179.26,-1229.66 183,-1234 208.17,-1263.22 231.13,-1301.53 244.96,-1326.44"/>
<polygon fill="#4b5563" stroke="#4b5563" points="242.71,-1327.43 248.22,-1332.39 247.01,-1325.08 242.71,-1327.43"/>
</g>
<!-- book/transport&#45;&gt;kernel/domain -->
<g id="edge47" class="edge">
<title>book/transport&#45;&gt;kernel/domain</title>
<path fill="none" stroke="#4b5563" d="M174.05,-1184.68C177.55,-1181.19 180.72,-1177.27 183,-1173 257.26,-1034.16 124.62,-943.93 223,-821 265.35,-768.09 449.02,-748.14 511.12,-721 519.23,-717.46 527.74,-713.23 535.67,-709.05"/>
<polygon fill="#4b5563" stroke="#4b5563" points="536.42,-711.43 541.43,-705.96 534.11,-707.11 536.42,-711.43"/>
</g>
<!-- book/transport&#45;&gt;kernel/transport -->
<g id="edge48" class="edge">
<title>book/transport&#45;&gt;kernel/transport</title>
<path fill="none" stroke="#4b5563" d="M174.09,-1184.7C177.59,-1181.21 180.74,-1177.28 183,-1173 224.14,-1094.95 167.03,-846.2 223,-778 277.85,-711.16 328.32,-752.09 409,-721 419.65,-716.89 430.99,-711.84 441.22,-707.02"/>
<polygon fill="#4b5563" stroke="#4b5563" points="442.17,-709.28 447.43,-704.04 440.05,-704.86 442.17,-709.28"/>
</g>
<!-- email/public -->
<g id="node18" class="node">
<title>email/public</title>
<path fill="#f3f4f6" stroke="#374151" d="M161.5,-170C161.5,-170 131.5,-170 131.5,-170 125.5,-170 119.5,-164 119.5,-158 119.5,-158 119.5,-146 119.5,-146 119.5,-140 125.5,-134 131.5,-134 131.5,-134 161.5,-134 161.5,-134 167.5,-134 173.5,-140 173.5,-146 173.5,-146 173.5,-158 173.5,-158 173.5,-164 167.5,-170 161.5,-170"/>
<text xml:space="preserve" text-anchor="middle" x="146.5" y="-148.12" font-family="Helvetica,sans-Serif" font-size="10.00" fill="#111827">public</text>
</g>
<!-- email/application -->
<g id="node19" class="node">
<title>email/application</title>
<path fill="#dbeafe" stroke="#374151" d="M278.75,-79C278.75,-79 240.25,-79 240.25,-79 234.25,-79 228.25,-73 228.25,-67 228.25,-67 228.25,-55 228.25,-55 228.25,-49 234.25,-43 240.25,-43 240.25,-43 278.75,-43 278.75,-43 284.75,-43 290.75,-49 290.75,-55 290.75,-55 290.75,-67 290.75,-67 290.75,-73 284.75,-79 278.75,-79"/>
<text xml:space="preserve" text-anchor="middle" x="259.5" y="-57.12" font-family="Helvetica,sans-Serif" font-size="10.00" fill="#111827">application</text>
</g>
<!-- email/public&#45;&gt;email/application -->
<g id="edge55" class="edge">
<title>email/public&#45;&gt;email/application</title>
<path fill="none" stroke="#4b5563" d="M169.96,-133.58C187.26,-119.4 211.3,-99.69 229.97,-84.39"/>
<polygon fill="#4b5563" stroke="#4b5563" points="231.04,-86.68 234.9,-80.35 227.93,-82.89 231.04,-86.68"/>
</g>
<!-- email/domain -->
<g id="node20" class="node">
<title>email/domain</title>
<path fill="#dcfce7" stroke="#374151" d="M387.5,-65C387.5,-65 357.5,-65 357.5,-65 351.5,-65 345.5,-59 345.5,-53 345.5,-53 345.5,-41 345.5,-41 345.5,-35 351.5,-29 357.5,-29 357.5,-29 387.5,-29 387.5,-29 393.5,-29 399.5,-35 399.5,-41 399.5,-41 399.5,-53 399.5,-53 399.5,-59 393.5,-65 387.5,-65"/>
<text xml:space="preserve" text-anchor="middle" x="372.5" y="-43.12" font-family="Helvetica,sans-Serif" font-size="10.00" fill="#111827">domain</text>
</g>
<!-- email/public&#45;&gt;email/domain -->
<g id="edge56" class="edge">
<title>email/public&#45;&gt;email/domain</title>
<path fill="none" stroke="#4b5563" stroke-dasharray="1,5" d="M152.6,-133.91C161.59,-105.94 183.16,-53.1 223,-31 258.43,-11.34 305.94,-21.65 337.57,-32.66"/>
<polygon fill="#4b5563" stroke="#4b5563" points="336.42,-34.84 343.84,-34.93 338.1,-30.24 336.42,-34.84"/>
</g>
<!-- email/infrastructure -->
<g id="node21" class="node">
<title>email/infrastructure</title>
<path fill="#ffedd5" stroke="#374151" d="M284,-262C284,-262 235,-262 235,-262 229,-262 223,-256 223,-250 223,-250 223,-238 223,-238 223,-232 229,-226 235,-226 235,-226 284,-226 284,-226 290,-226 296,-232 296,-238 296,-238 296,-250 296,-250 296,-256 290,-262 284,-262"/>
<text xml:space="preserve" text-anchor="middle" x="259.5" y="-240.12" font-family="Helvetica,sans-Serif" font-size="10.00" fill="#111827">infrastructure</text>
</g>
<!-- email/public&#45;&gt;email/infrastructure -->
<g id="edge57" class="edge">
<title>email/public&#45;&gt;email/infrastructure</title>
<path fill="none" stroke="#4b5563" d="M173.81,-165.69C193.62,-180.22 220.37,-202.63 238.47,-219.99"/>
<polygon fill="#4b5563" stroke="#4b5563" points="236.46,-221.45 243.17,-224.61 239.89,-217.95 236.46,-221.45"/>
</g>
<!-- email/presentation -->
<g id="node22" class="node">
<title>email/presentation</title>
<path fill="#fef9c3" stroke="#374151" d="M282.12,-201C282.12,-201 236.88,-201 236.88,-201 230.88,-201 224.88,-195 224.88,-189 224.88,-189 224.88,-177 224.88,-177 224.88,-171 230.88,-165 236.88,-165 236.88,-165 282.12,-165 282.12,-165 288.12,-165 294.12,-171 294.12,-177 294.12,-177 294.12,-189 294.12,-189 294.12,-195 288.12,-201 282.12,-201"/>
<text xml:space="preserve" text-anchor="middle" x="259.5" y="-179.12" font-family="Helvetica,sans-Serif" font-size="10.00" fill="#111827">presentation</text>
</g>
<!-- email/public&#45;&gt;email/presentation -->
<g id="edge58" class="edge">
<title>email/public&#45;&gt;email/presentation</title>
<path fill="none" stroke="#4b5563" stroke-dasharray="1,5" d="M173.81,-159.35C186.57,-162.91 202.22,-167.28 216.57,-171.29"/>
<polygon fill="#4b5563" stroke="#4b5563" points="215.53,-173.54 222.93,-173.07 216.85,-168.82 215.53,-173.54"/>
</g>
<!-- email/transport -->
<g id="node23" class="node">
<title>email/transport</title>
<path fill="#ede9fe" stroke="#374151" d="M274.62,-140C274.62,-140 244.38,-140 244.38,-140 238.38,-140 232.38,-134 232.38,-128 232.38,-128 232.38,-116 232.38,-116 232.38,-110 238.38,-104 244.38,-104 244.38,-104 274.62,-104 274.62,-104 280.62,-104 286.62,-110 286.62,-116 286.62,-116 286.62,-128 286.62,-128 286.62,-134 280.62,-140 274.62,-140"/>
<text xml:space="preserve" text-anchor="middle" x="259.5" y="-118.12" font-family="Helvetica,sans-Serif" font-size="10.00" fill="#111827">transport</text>
</g>
<!-- email/public&#45;&gt;email/transport -->
<g id="edge59" class="edge">
<title>email/public&#45;&gt;email/transport</title>
<path fill="none" stroke="#4b5563" d="M173.81,-136.78C188.76,-131.31 207.68,-125.98 223.84,-122.61"/>
<polygon fill="#4b5563" stroke="#4b5563" points="224.1,-125.05 230.51,-121.32 223.18,-120.24 224.1,-125.05"/>
</g>
<!-- email/public&#45;&gt;kernel/transport -->
<g id="edge60" class="edge">
<title>email/public&#45;&gt;kernel/transport</title>
<path fill="none" stroke="#4b5563" d="M155.15,-170.2C166.74,-196.06 190.84,-243.74 223,-275 249.84,-301.09 269.22,-290.85 296,-317 365.21,-384.58 367.55,-415.61 409,-503 435.27,-558.39 456.99,-627.18 467.77,-663.94"/>
<polygon fill="#4b5563" stroke="#4b5563" points="465.3,-664.22 469.61,-670.26 470.01,-662.86 465.3,-664.22"/>
</g>
<!-- email/application&#45;&gt;email/domain -->
<g id="edge49" class="edge">
<title>email/application&#45;&gt;email/domain</title>
<path fill="none" stroke="#4b5563" d="M291.13,-57.14C305.29,-55.35 322.17,-53.22 336.8,-51.38"/>
<polygon fill="#4b5563" stroke="#4b5563" points="336.98,-53.82 343.62,-50.52 336.37,-48.96 336.98,-53.82"/>
</g>
<!-- email/application&#45;&gt;kernel/domain -->
<g id="edge50" class="edge">
<title>email/application&#45;&gt;kernel/domain</title>
<path fill="none" stroke="#4b5563" d="M290.94,-69.15C345.82,-85.62 460.33,-128.53 511.12,-211 558.38,-287.71 567.26,-573.72 568.89,-663.12"/>
<polygon fill="#4b5563" stroke="#4b5563" points="566.44,-663.14 569.01,-670.1 571.34,-663.06 566.44,-663.14"/>
</g>
<!-- email/infrastructure&#45;&gt;email/public -->
<g id="edge51" class="edge">
<title>email/infrastructure&#45;&gt;email/public</title>
<path fill="none" stroke="#4b5563" d="M225.96,-225.65C206.91,-211.19 183.48,-191.35 167.21,-175.7"/>
<polygon fill="#4b5563" stroke="#4b5563" points="169.35,-174.37 162.64,-171.2 165.91,-177.86 169.35,-174.37"/>
</g>
<!-- email/infrastructure&#45;&gt;kernel/domain -->
<g id="edge52" class="edge">
<title>email/infrastructure&#45;&gt;kernel/domain</title>
<path fill="none" stroke="#4b5563" d="M296.35,-245.56C351.59,-250.04 456.8,-267.12 511.12,-332 553.37,-382.45 565.38,-589.15 568.36,-663.34"/>
<polygon fill="#4b5563" stroke="#4b5563" points="565.91,-663.29 568.63,-670.19 570.81,-663.11 565.91,-663.29"/>
</g>
<!-- email/infrastructure&#45;&gt;kernel/infrastructure -->
<g id="edge53" class="edge">
<title>email/infrastructure&#45;&gt;kernel/infrastructure</title>
<path fill="none" stroke="#4b5563" d="M266.77,-262.41C274.9,-279.74 288.87,-304.46 296,-327.5 334.6,-452.21 301.4,-492.62 336,-618.5 340.28,-634.07 346.78,-650.56 353.06,-663.99"/>
<polygon fill="#4b5563" stroke="#4b5563" points="350.79,-664.92 356.05,-670.14 355.2,-662.78 350.79,-664.92"/>
</g>
<!-- email/presentation&#45;&gt;auth/public -->
<g id="edge54" class="edge">
<title>email/presentation&#45;&gt;auth/public</title>
<path fill="none" stroke="#4b5563" d="M225.54,-201.32C216.55,-207.97 207.97,-216.39 203,-226.5 174.69,-284.02 192.62,-740.24 203,-803.5 211.52,-855.43 233.98,-912.94 247.87,-945.26"/>
<polygon fill="#4b5563" stroke="#4b5563" points="245.56,-946.09 250.61,-951.53 250.06,-944.13 245.56,-946.09"/>
</g>
<!-- email/transport&#45;&gt;email/public -->
<g id="edge61" class="edge">
<title>email/transport&#45;&gt;email/public</title>
<path fill="none" stroke="#4b5563" d="M232,-137.29C217.01,-142.76 198.09,-148.08 181.95,-151.44"/>
<polygon fill="#4b5563" stroke="#4b5563" points="181.7,-148.99 175.29,-152.72 182.63,-153.8 181.7,-148.99"/>
</g>
<!-- email/transport&#45;&gt;kernel/domain -->
<g id="edge62" class="edge">
<title>email/transport&#45;&gt;kernel/domain</title>
<path fill="none" stroke="#4b5563" d="M287.12,-130.3C339.73,-148.2 456.61,-195.81 511.12,-280 552.59,-344.05 565.26,-583.76 568.37,-663.8"/>
<polygon fill="#4b5563" stroke="#4b5563" points="565.91,-663.48 568.62,-670.38 570.8,-663.3 565.91,-663.48"/>
</g>
<!-- genre/application -->
<g id="node25" class="node">
<title>genre/application</title>
<path fill="#dbeafe" stroke="#374151" d="M391.75,-1510C391.75,-1510 353.25,-1510 353.25,-1510 347.25,-1510 341.25,-1504 341.25,-1498 341.25,-1498 341.25,-1486 341.25,-1486 341.25,-1480 347.25,-1474 353.25,-1474 353.25,-1474 391.75,-1474 391.75,-1474 397.75,-1474 403.75,-1480 403.75,-1486 403.75,-1486 403.75,-1498 403.75,-1498 403.75,-1504 397.75,-1510 391.75,-1510"/>
<text xml:space="preserve" text-anchor="middle" x="372.5" y="-1488.12" font-family="Helvetica,sans-Serif" font-size="10.00" fill="#111827">application</text>
</g>
<!-- genre/public&#45;&gt;genre/application -->
<g id="edge68" class="edge">
<title>genre/public&#45;&gt;genre/application</title>
<path fill="none" stroke="#4b5563" d="M286.81,-1525.57C300.67,-1520.08 317.94,-1513.23 333.26,-1507.16"/>
<polygon fill="#4b5563" stroke="#4b5563" points="334.05,-1509.48 339.65,-1504.62 332.24,-1504.93 334.05,-1509.48"/>
</g>
<!-- genre/domain -->
<g id="node26" class="node">
<title>genre/domain</title>
<path fill="#dcfce7" stroke="#374151" d="M491.12,-1470C491.12,-1470 461.12,-1470 461.12,-1470 455.12,-1470 449.12,-1464 449.12,-1458 449.12,-1458 449.12,-1446 449.12,-1446 449.12,-1440 455.12,-1434 461.12,-1434 461.12,-1434 491.12,-1434 491.12,-1434 497.12,-1434 503.12,-1440 503.12,-1446 503.12,-1446 503.12,-1458 503.12,-1458 503.12,-1464 497.12,-1470 491.12,-1470"/>
<text xml:space="preserve" text-anchor="middle" x="476.12" y="-1448.12" font-family="Helvetica,sans-Serif" font-size="10.00" fill="#111827">domain</text>
</g>
<!-- genre/public&#45;&gt;genre/domain -->
<g id="edge69" class="edge">
<title>genre/public&#45;&gt;genre/domain</title>
<path fill="none" stroke="#4b5563" stroke-dasharray="1,5" d="M286.95,-1539.19C317.88,-1541.71 369.81,-1542.13 409,-1523 429.79,-1512.85 447.31,-1493.15 459.08,-1477.07"/>
<polygon fill="#4b5563" stroke="#4b5563" points="460.86,-1478.8 462.9,-1471.67 456.85,-1475.98 460.86,-1478.8"/>
</g>
<!-- genre/public&#45;&gt;genre/infrastructure -->
<g id="edge70" class="edge">
<title>genre/public&#45;&gt;genre/infrastructure</title>
<path fill="none" stroke="#4b5563" d="M278.1,-1554.3C293.16,-1569.74 315.57,-1592.28 336,-1611 338.21,-1613.03 340.53,-1615.1 342.88,-1617.16"/>
<polygon fill="#4b5563" stroke="#4b5563" points="341.06,-1618.83 347.96,-1621.56 344.27,-1615.12 341.06,-1618.83"/>
</g>
<!-- genre/presentation -->
<g id="node28" class="node">
<title>genre/presentation</title>
<path fill="#fef9c3" stroke="#374151" d="M395.12,-1598C395.12,-1598 349.88,-1598 349.88,-1598 343.88,-1598 337.88,-1592 337.88,-1586 337.88,-1586 337.88,-1574 337.88,-1574 337.88,-1568 343.88,-1562 349.88,-1562 349.88,-1562 395.12,-1562 395.12,-1562 401.12,-1562 407.12,-1568 407.12,-1574 407.12,-1574 407.12,-1586 407.12,-1586 407.12,-1592 401.12,-1598 395.12,-1598"/>
<text xml:space="preserve" text-anchor="middle" x="372.5" y="-1576.12" font-family="Helvetica,sans-Serif" font-size="10.00" fill="#111827">presentation</text>
</g>
<!-- genre/public&#45;&gt;genre/presentation -->
<g id="edge71" class="edge">
<title>genre/public&#45;&gt;genre/presentation</title>
<path fill="none" stroke="#4b5563" stroke-dasharray="1,5" d="M286.81,-1538.32C302.15,-1542.93 321.66,-1550.47 338.08,-1558.07"/>
<polygon fill="#4b5563" stroke="#4b5563" points="336.64,-1560.1 344.02,-1560.9 338.75,-1555.68 336.64,-1560.1"/>
</g>
<!-- genre/transport -->
<g id="node29" class="node">
<title>genre/transport</title>
<path fill="#ede9fe" stroke="#374151" d="M387.62,-1449C387.62,-1449 357.38,-1449 357.38,-1449 351.38,-1449 345.38,-1443 345.38,-1437 345.38,-1437 345.38,-1425 345.38,-1425 345.38,-1419 351.38,-1413 357.38,-1413 357.38,-1413 387.62,-1413 387.62,-1413 393.62,-1413 399.62,-1419 399.62,-1425 399.62,-1425 399.62,-1437 399.62,-1437 399.62,-1443 393.62,-1449 387.62,-1449"/>
<text xml:space="preserve" text-anchor="middle" x="372.5" y="-1427.12" font-family="Helvetica,sans-Serif" font-size="10.00" fill="#111827">transport</text>
</g>
<!-- genre/public&#45;&gt;genre/transport -->
<g id="edge72" class="edge">
<title>genre/public&#45;&gt;genre/transport</title>
<path fill="none" stroke="#4b5563" stroke-dasharray="1,5" d="M278.52,-1517.76C293.64,-1502.59 315.93,-1480.57 336,-1462 338.5,-1459.69 341.13,-1457.31 343.77,-1454.94"/>
<polygon fill="#4b5563" stroke="#4b5563" points="345.17,-1456.97 348.79,-1450.49 341.93,-1453.3 345.17,-1456.97"/>
</g>
<!-- genre/application&#45;&gt;genre/domain -->
<g id="edge63" class="edge">
<title>genre/application&#45;&gt;genre/domain</title>
<path fill="none" stroke="#4b5563" d="M403.99,-1480C415.69,-1475.39 429.12,-1470.11 441.13,-1465.38"/>
<polygon fill="#4b5563" stroke="#4b5563" points="441.76,-1467.77 447.38,-1462.92 439.97,-1463.21 441.76,-1467.77"/>
</g>
<!-- genre/infrastructure&#45;&gt;kernel/domain -->
<g id="edge64" class="edge">
<title>genre/infrastructure&#45;&gt;kernel/domain</title>
<path fill="none" stroke="#4b5563" d="M409.48,-1628.26C442.15,-1614.61 488.56,-1589.56 511.12,-1551 554.21,-1477.38 566.64,-853.29 568.86,-716.45"/>
<polygon fill="#4b5563" stroke="#4b5563" points="571.3,-716.71 568.96,-709.67 566.4,-716.63 571.3,-716.71"/>
</g>
<!-- genre/infrastructure&#45;&gt;kernel/infrastructure -->
<g id="edge65" class="edge">
<title>genre/infrastructure&#45;&gt;kernel/infrastructure</title>
<path fill="none" stroke="#4b5563" d="M337.67,-1622.6C329.01,-1616.21 320.82,-1608.16 316,-1598.5 297.02,-1560.47 308.08,-875.25 316,-833.5 324.17,-790.46 344.97,-743.82 358.93,-715.76"/>
<polygon fill="#4b5563" stroke="#4b5563" points="361.02,-717.06 361.98,-709.71 356.64,-714.85 361.02,-717.06"/>
</g>
<!-- genre/presentation&#45;&gt;genre/public -->
<g id="edge66" class="edge">
<title>genre/presentation&#45;&gt;genre/public</title>
<path fill="none" stroke="#4b5563" d="M337.64,-1575.29C323.78,-1570.69 307.78,-1564.34 293.95,-1557.94"/>
<polygon fill="#4b5563" stroke="#4b5563" points="295.26,-1555.86 287.89,-1555.05 293.15,-1560.28 295.26,-1555.86"/>
</g>
<!-- genre/presentation&#45;&gt;kernel/domain -->
<g id="edge67" class="edge">
<title>genre/presentation&#45;&gt;kernel/domain</title>
<path fill="none" stroke="#4b5563" d="M407.39,-1572.11C439.96,-1562.59 487.59,-1543.15 511.12,-1507 555.11,-1439.43 566.78,-850.39 568.87,-716.85"/>
<polygon fill="#4b5563" stroke="#4b5563" points="571.32,-716.92 568.98,-709.89 566.42,-716.85 571.32,-716.92"/>
</g>
<!-- genre/transport&#45;&gt;auth/public -->
<g id="edge73" class="edge">
<title>genre/transport&#45;&gt;auth/public</title>
<path fill="none" stroke="#4b5563" stroke-dasharray="5,2" d="M367.28,-1412.52C356.02,-1363.27 324.16,-1224.82 296,-1110 286.38,-1070.76 274.69,-1025.44 267.43,-997.5"/>
<polygon fill="#4b5563" stroke="#4b5563" points="269.84,-997.03 265.7,-990.87 265.1,-998.27 269.84,-997.03"/>
</g>
<!-- genre/transport&#45;&gt;kernel/domain -->
<g id="edge74" class="edge">
<title>genre/transport&#45;&gt;kernel/domain</title>
<path fill="none" stroke="#4b5563" d="M392.85,-1449.28C407.14,-1461.45 427.72,-1476.38 449,-1483 475.37,-1491.2 490.9,-1501.8 511.12,-1483 568.45,-1429.72 569.83,-848.49 569.39,-716.54"/>
<polygon fill="#4b5563" stroke="#4b5563" points="571.84,-716.67 569.37,-709.68 566.94,-716.69 571.84,-716.67"/>
</g>
<!-- genre/transport&#45;&gt;kernel/transport -->
<g id="edge75" class="edge">
<title>genre/transport&#45;&gt;kernel/transport</title>
<path fill="none" stroke="#4b5563" d="M376.86,-1412.68C383.65,-1375.26 399.17,-1287.32 409,-1213 431.97,-1039.39 422.96,-994.18 449,-821 454.51,-784.37 463.31,-742.46 469.16,-716.11"/>
<polygon fill="#4b5563" stroke="#4b5563" points="471.47,-716.97 470.61,-709.61 466.69,-715.9 471.47,-716.97"/>
</g>
<!-- kernel/application -->
<g id="node31" class="node">
<title>kernel/application</title>
<path fill="#dbeafe" stroke="#374151" d="M391.75,-593C391.75,-593 353.25,-593 353.25,-593 347.25,-593 341.25,-587 341.25,-581 341.25,-581 341.25,-569 341.25,-569 341.25,-563 347.25,-557 353.25,-557 353.25,-557 391.75,-557 391.75,-557 397.75,-557 403.75,-563 403.75,-569 403.75,-569 403.75,-581 403.75,-581 403.75,-587 397.75,-593 391.75,-593"/>
<text xml:space="preserve" text-anchor="middle" x="372.5" y="-571.12" font-family="Helvetica,sans-Serif" font-size="10.00" fill="#111827">application</text>
</g>
<!-- kernel/public&#45;&gt;kernel/application -->
<g id="edge82" class="edge">
<title>kernel/public&#45;&gt;kernel/application</title>
<path fill="none" stroke="#4b5563" stroke-dasharray="1,5" d="M286.81,-584.92C300.54,-583.31 317.62,-581.31 332.83,-579.53"/>
<polygon fill="#4b5563" stroke="#4b5563" points="332.89,-581.99 339.56,-578.74 332.32,-577.12 332.89,-581.99"/>
</g>
<!-- kernel/public&#45;&gt;kernel/domain -->
<g id="edge83" class="edge">
<title>kernel/public&#45;&gt;kernel/domain</title>
<path fill="none" stroke="#4b5563" stroke-dasharray="1,5" d="M286.81,-594.28C316.51,-601.4 366.26,-613.38 409,-624 454.45,-635.3 468.47,-630.64 511.12,-650 520.98,-654.47 530.96,-660.63 539.8,-666.76"/>
<polygon fill="#4b5563" stroke="#4b5563" points="538.28,-668.69 545.4,-670.77 541.13,-664.7 538.28,-668.69"/>
</g>
<!-- kernel/public&#45;&gt;kernel/infrastructure -->
<g id="edge84" class="edge">
<title>kernel/public&#45;&gt;kernel/infrastructure</title>
<path fill="none" stroke="#4b5563" d="M280.6,-606.47C298.75,-623.15 325.58,-647.8 345.38,-666"/>
<polygon fill="#4b5563" stroke="#4b5563" points="343.62,-667.71 350.43,-670.64 346.94,-664.1 343.62,-667.71"/>
</g>
<!-- kernel/public&#45;&gt;kernel/transport -->
<g id="edge85" class="edge">
<title>kernel/public&#45;&gt;kernel/transport</title>
<path fill="none" stroke="#4b5563" stroke-dasharray="5,2" d="M286.94,-601.59C301.38,-608.94 319.61,-618.11 336,-626 355.54,-635.41 406.69,-658.82 441.21,-674.57"/>
<polygon fill="#4b5563" stroke="#4b5563" points="439.98,-676.7 447.36,-677.37 442.01,-672.24 439.98,-676.7"/>
</g>
<!-- kernel/infrastructure&#45;&gt;auth/infrastructure -->
<g id="edge76" class="edge">
<title>kernel/infrastructure&#45;&gt;auth/infrastructure</title>
<path fill="none" stroke="#4b5563" d="M359.04,-708.44C334.35,-744.69 286.9,-827.31 316,-891.5 320.51,-901.44 328.1,-910.17 336.29,-917.42"/>
<polygon fill="#4b5563" stroke="#4b5563" points="334.5,-919.12 341.45,-921.7 337.63,-915.35 334.5,-919.12"/>
</g>
<!-- kernel/infrastructure&#45;&gt;book/infrastructure -->
<g id="edge77" class="edge">
<title>kernel/infrastructure&#45;&gt;book/infrastructure</title>
<path fill="none" stroke="#4b5563" d="M335.5,-688.65C301.55,-689.46 251.72,-696.38 223,-727 169.71,-783.82 152.85,-1032.82 148.67,-1115.33"/>
<polygon fill="#4b5563" stroke="#4b5563" points="146.24,-1115.05 148.34,-1122.16 151.13,-1115.29 146.24,-1115.05"/>
</g>
<!-- kernel/infrastructure&#45;&gt;email/infrastructure -->
<g id="edge78" class="edge">
<title>kernel/infrastructure&#45;&gt;email/infrastructure</title>
<path fill="none" stroke="#4b5563" stroke-dasharray="1,5" d="M366.1,-671.63C358.2,-651.68 343.59,-621.13 336,-593.5 301.4,-467.62 334.6,-427.21 296,-302.5 292.53,-291.27 287.43,-279.65 282.17,-269.6"/>
<polygon fill="#4b5563" stroke="#4b5563" points="284.39,-268.54 278.88,-263.58 280.09,-270.9 284.39,-268.54"/>
</g>
<!-- kernel/infrastructure&#45;&gt;genre/infrastructure -->
<g id="edge79" class="edge">
<title>kernel/infrastructure&#45;&gt;genre/infrastructure</title>
<path fill="none" stroke="#4b5563" d="M362.67,-708.36C349,-735.02 324.94,-786.41 316,-833.5 308.08,-875.25 297.02,-1560.47 316,-1598.5 319.62,-1605.75 325.13,-1612.08 331.31,-1617.5"/>
<polygon fill="#4b5563" stroke="#4b5563" points="329.5,-1619.18 336.49,-1621.65 332.56,-1615.36 329.5,-1619.18"/>
</g>
<!-- kernel/infrastructure&#45;&gt;kernel/domain -->
<g id="edge80" class="edge">
<title>kernel/infrastructure&#45;&gt;kernel/domain</title>
<path fill="none" stroke="#4b5563" d="M409.14,-672.63C421.47,-667.5 435.56,-662.57 449,-660 476.12,-654.81 484.29,-653.48 511.12,-660 519.32,-661.99 527.65,-665.35 535.35,-669.12"/>
<polygon fill="#4b5563" stroke="#4b5563" points="534.12,-671.24 541.46,-672.29 536.38,-666.89 534.12,-671.24"/>
</g>
<!-- kernel/infrastructure&#45;&gt;kernel/transport -->
<g id="edge81" class="edge">
<title>kernel/infrastructure&#45;&gt;kernel/transport</title>
<path fill="none" stroke="#4b5563" d="M409.33,-690C419.32,-690 430.16,-690 440.1,-690"/>
<polygon fill="#4b5563" stroke="#4b5563" points="440.05,-692.45 447.05,-690 440.05,-687.55 440.05,-692.45"/>
</g>
<!-- kernel/transport&#45;&gt;kernel/domain -->
<g id="edge86" class="edge">
<title>kernel/transport&#45;&gt;kernel/domain</title>
<path fill="none" stroke="#4b5563" d="M503.28,-690C513,-690 524.19,-690 534.56,-690"/>
<polygon fill="#4b5563" stroke="#4b5563" points="534.52,-692.45 541.52,-690 534.52,-687.55 534.52,-692.45"/>
</g>
<!-- user/public -->
<g id="node35" class="node">
<title>user/public</title>
<path fill="#f3f4f6" stroke="#374151" d="M58,-453C58,-453 28,-453 28,-453 22,-453 16,-447 16,-441 16,-441 16,-429 16,-429 16,-423 22,-417 28,-417 28,-417 58,-417 58,-417 64,-417 70,-423 70,-429 70,-429 70,-441 70,-441 70,-447 64,-453 58,-453"/>
<text xml:space="preserve" text-anchor="middle" x="43" y="-431.12" font-family="Helvetica,sans-Serif" font-size="10.00" fill="#111827">public</text>
</g>
<!-- user/application -->
<g id="node36" class="node">
<title>user/application</title>
<path fill="#dbeafe" stroke="#374151" d="M165.75,-392C165.75,-392 127.25,-392 127.25,-392 121.25,-392 115.25,-386 115.25,-380 115.25,-380 115.25,-368 115.25,-368 115.25,-362 121.25,-356 127.25,-356 127.25,-356 165.75,-356 165.75,-356 171.75,-356 177.75,-362 177.75,-368 177.75,-368 177.75,-380 177.75,-380 177.75,-386 171.75,-392 165.75,-392"/>
<text xml:space="preserve" text-anchor="middle" x="146.5" y="-370.12" font-family="Helvetica,sans-Serif" font-size="10.00" fill="#111827">application</text>
</g>
<!-- user/public&#45;&gt;user/application -->
<g id="edge92" class="edge">
<title>user/public&#45;&gt;user/application</title>
<path fill="none" stroke="#4b5563" d="M70.4,-419.13C81.79,-412.29 95.33,-404.15 107.75,-396.69"/>
<polygon fill="#4b5563" stroke="#4b5563" points="108.88,-398.87 113.62,-393.16 106.35,-394.67 108.88,-398.87"/>
</g>
<!-- user/domain -->
<g id="node37" class="node">
<title>user/domain</title>
<path fill="#dcfce7" stroke="#374151" d="M274.5,-425C274.5,-425 244.5,-425 244.5,-425 238.5,-425 232.5,-419 232.5,-413 232.5,-413 232.5,-401 232.5,-401 232.5,-395 238.5,-389 244.5,-389 244.5,-389 274.5,-389 274.5,-389 280.5,-389 286.5,-395 286.5,-401 286.5,-401 286.5,-413 286.5,-413 286.5,-419 280.5,-425 274.5,-425"/>
<text xml:space="preserve" text-anchor="middle" x="259.5" y="-403.12" font-family="Helvetica,sans-Serif" font-size="10.00" fill="#111827">domain</text>
</g>
<!-- user/public&#45;&gt;user/domain -->
<g id="edge93" class="edge">
<title>user/public&#45;&gt;user/domain</title>
<path fill="none" stroke="#4b5563" stroke-dasharray="1,5" d="M51.16,-416.58C60.81,-394.67 80.27,-359.16 110,-344 138.9,-329.26 152.5,-332.95 183,-344 204.35,-351.74 223.89,-368.44 237.74,-382.7"/>
<polygon fill="#4b5563" stroke="#4b5563" points="235.7,-384.11 242.28,-387.53 239.27,-380.75 235.7,-384.11"/>
</g>
<!-- user/presentation -->
<g id="node38" class="node">
<title>user/presentation</title>
<path fill="#fef9c3" stroke="#374151" d="M169.12,-453C169.12,-453 123.88,-453 123.88,-453 117.88,-453 111.88,-447 111.88,-441 111.88,-441 111.88,-429 111.88,-429 111.88,-423 117.88,-417 123.88,-417 123.88,-417 169.12,-417 169.12,-417 175.12,-417 181.12,-423 181.12,-429 181.12,-429 181.12,-441 181.12,-441 181.12,-447 175.12,-453 169.12,-453"/>
<text xml:space="preserve" text-anchor="middle" x="146.5" y="-431.12" font-family="Helvetica,sans-Serif" font-size="10.00" fill="#111827">presentation</text>
</g>
<!-- user/public&#45;&gt;user/presentation -->
<g id="edge94" class="edge">
<title>user/public&#45;&gt;user/presentation</title>
<path fill="none" stroke="#4b5563" stroke-dasharray="1,5" d="M70.4,-426.66C80.42,-425.74 92.09,-425.43 103.21,-425.74"/>
<polygon fill="#4b5563" stroke="#4b5563" points="102.96,-428.18 110.06,-426.03 103.17,-423.29 102.96,-428.18"/>
</g>
<!-- user/transport -->
<g id="node39" class="node">
<title>user/transport</title>
<path fill="#ede9fe" stroke="#374151" d="M161.62,-514C161.62,-514 131.38,-514 131.38,-514 125.38,-514 119.38,-508 119.38,-502 119.38,-502 119.38,-490 119.38,-490 119.38,-484 125.38,-478 131.38,-478 131.38,-478 161.62,-478 161.62,-478 167.62,-478 173.62,-484 173.62,-490 173.62,-490 173.62,-502 173.62,-502 173.62,-508 167.62,-514 161.62,-514"/>
<text xml:space="preserve" text-anchor="middle" x="146.5" y="-492.12" font-family="Helvetica,sans-Serif" font-size="10.00" fill="#111827">transport</text>
</g>
<!-- user/public&#45;&gt;user/transport -->
<g id="edge95" class="edge">
<title>user/public&#45;&gt;user/transport</title>
<path fill="none" stroke="#4b5563" stroke-dasharray="1,5" d="M70.4,-450.87C82.99,-458.43 98.2,-467.57 111.63,-475.64"/>
<polygon fill="#4b5563" stroke="#4b5563" points="110.32,-477.71 117.58,-479.22 112.84,-473.51 110.32,-477.71"/>
</g>
<!-- user/application&#45;&gt;user/domain -->
<g id="edge87" class="edge">
<title>user/application&#45;&gt;user/domain</title>
<path fill="none" stroke="#4b5563" d="M178.13,-383.1C192.42,-387.35 209.49,-392.43 224.21,-396.81"/>
<polygon fill="#4b5563" stroke="#4b5563" points="223.26,-399.08 230.67,-398.73 224.66,-394.38 223.26,-399.08"/>
</g>
<!-- user/presentation&#45;&gt;auth/public -->
<g id="edge88" class="edge">
<title>user/presentation&#45;&gt;auth/public</title>
<path fill="none" stroke="#4b5563" d="M173.23,-453.4C177.02,-457.16 180.5,-461.4 183,-466 242.07,-574.47 204.69,-618.86 223,-741 234.04,-814.64 247.58,-901.46 254.3,-944.31"/>
<polygon fill="#4b5563" stroke="#4b5563" points="251.85,-944.49 255.36,-951.03 256.69,-943.73 251.85,-944.49"/>
</g>
<!-- user/presentation&#45;&gt;kernel/public -->
<g id="edge90" class="edge">
<title>user/presentation&#45;&gt;kernel/public</title>
<path fill="none" stroke="#4b5563" d="M171.33,-453.47C175.51,-457.34 179.61,-461.59 183,-466 207.48,-497.82 200.79,-513.55 223,-547 226.66,-552.52 230.99,-558.09 235.34,-563.28"/>
<polygon fill="#4b5563" stroke="#4b5563" points="233.4,-564.78 239.83,-568.47 237.11,-561.58 233.4,-564.78"/>
</g>
<!-- user/presentation&#45;&gt;kernel/domain -->
<g id="edge89" class="edge">
<title>user/presentation&#45;&gt;kernel/domain</title>
<path fill="none" stroke="#4b5563" d="M169.88,-416.62C189.85,-400.43 216.86,-379.09 223,-377 253.72,-366.56 265.05,-367.27 296,-377 407.2,-411.94 440.38,-434.37 511.12,-527 542.9,-568.6 558.35,-629.08 564.97,-663.47"/>
<polygon fill="#4b5563" stroke="#4b5563" points="562.52,-663.69 566.2,-670.13 567.34,-662.81 562.52,-663.69"/>
</g>
<!-- user/presentation&#45;&gt;user/public -->
<g id="edge91" class="edge">
<title>user/presentation&#45;&gt;user/public</title>
<path fill="none" stroke="#4b5563" d="M111.57,-443.9C100.98,-444.52 89.3,-444.53 78.66,-443.94"/>
<polygon fill="#4b5563" stroke="#4b5563" points="79.07,-441.52 71.91,-443.45 78.72,-446.4 79.07,-441.52"/>
</g>
<!-- user/transport&#45;&gt;auth/public -->
<g id="edge96" class="edge">
<title>user/transport&#45;&gt;auth/public</title>
<path fill="none" stroke="#4b5563" stroke-dasharray="5,2" d="M151.78,-514.33C168.87,-587.43 232.18,-858.37 252.31,-944.52"/>
<polygon fill="#4b5563" stroke="#4b5563" points="249.91,-944.99 253.89,-951.25 254.68,-943.88 249.91,-944.99"/>
</g>
<!-- user/transport&#45;&gt;kernel/domain -->
<g id="edge97" class="edge">
<title>user/transport&#45;&gt;kernel/domain</title>
<path fill="none" stroke="#4b5563" d="M174.06,-489.17C223.77,-477.94 332.72,-460.75 409,-503 478.54,-541.52 531.6,-622.72 555.43,-664.3"/>
<polygon fill="#4b5563" stroke="#4b5563" points="553.23,-665.37 558.8,-670.26 557.49,-662.96 553.23,-665.37"/>
</g>
<!-- user/transport&#45;&gt;kernel/transport -->
<g id="edge98" class="edge">
<title>user/transport&#45;&gt;kernel/transport</title>
<path fill="none" stroke="#4b5563" d="M174.06,-493.49C225.23,-490.11 338.62,-489.91 409,-545 446.6,-574.43 463.56,-630.08 470.61,-663.22"/>
<polygon fill="#4b5563" stroke="#4b5563" points="468.2,-663.66 471.98,-670.04 473.01,-662.7 468.2,-663.66"/>
</g>
</g>
</svg>
