<svg width="770" height="196" viewBox="0 0 770 196" fill="none" xmlns="http://www.w3.org/2000/svg">
<rect width="770" height="196" rx="24" fill="black"/>
<path d="M100.759 40.8763C92.9004 39.3882 84.7609 39.7575 77.1724 42.2749C65.2343 46.2385 51.3281 56.3392 50.1304 81.7908C47.9992 127.041 72.2099 150.828 106.801 155.664C132.949 159.32 150.583 132.19 157.629 118.742C161.248 111.9 163.093 104.268 162.996 96.5375C162.698 78.9404 153.474 50.8539 100.759 40.8763Z" fill="url(#paint0_linear)"/>
<path d="M128.243 74.8907L88.2976 70.6743C80.8628 69.8896 75.5327 77.7147 78.9746 84.3648C80.3334 86.9912 81.0214 89.915 80.9772 92.875C80.9331 95.835 80.7636 98.2006 78.7214 101.327C76.6792 104.454 70.7402 111.602 70.7402 111.602C70.5873 111.877 70.5048 112.186 70.5 112.5C70.4952 112.814 70.5682 113.125 70.7125 113.404C70.8569 113.683 71.068 113.922 71.3271 114.099C71.5861 114.276 71.8851 114.386 72.1971 114.419C72.1971 114.419 80.7296 113.953 84.3093 113.49C87.8889 113.028 90.5059 114.941 93.1337 116.738C95.7614 118.535 97.9034 120.957 99.3683 123.787C102.819 130.439 112.265 130.567 115.903 124.009L135.447 88.7982C136.199 87.4398 136.605 85.9162 136.627 84.3635C136.65 82.8107 136.288 81.2772 135.574 79.8998C134.861 78.5224 133.818 77.3441 132.539 76.47C131.259 75.5959 129.784 75.0533 128.243 74.8907Z" fill="black"/>
<path d="M218.216 134.038C211.879 134.038 206.443 133.104 201.907 131.236C197.372 129.369 193.936 126.934 191.602 123.932C189.334 120.864 188.133 117.529 188 113.927C188 113.394 188.2 112.927 188.6 112.526C189.067 112.06 189.601 111.826 190.201 111.826H202.808C203.608 111.826 204.242 111.993 204.709 112.326C205.242 112.593 205.776 113.027 206.31 113.627C207.177 115.361 208.577 116.795 210.512 117.929C212.446 119.063 215.014 119.63 218.216 119.63C222.018 119.63 224.919 119.03 226.92 117.829C228.921 116.629 229.922 114.994 229.922 112.927C229.922 111.459 229.388 110.259 228.321 109.325C227.321 108.391 225.72 107.557 223.519 106.823C221.317 106.09 218.049 105.256 213.713 104.322C205.709 102.655 199.706 100.22 195.704 97.0183C191.769 93.7499 189.801 89.1142 189.801 83.1111C189.801 79.0423 190.935 75.407 193.203 72.2054C195.471 69.0037 198.706 66.5024 202.908 64.7014C207.11 62.9005 212.013 62 217.615 62C223.419 62 228.454 63.0005 232.723 65.0016C236.992 67.0026 240.227 69.5373 242.428 72.6056C244.696 75.6071 245.897 78.5753 246.03 81.5102C246.03 82.1105 245.83 82.6108 245.43 83.011C245.03 83.4112 244.53 83.6113 243.929 83.6113H230.722C229.922 83.6113 229.255 83.4779 228.721 83.2111C228.254 82.9443 227.821 82.5107 227.421 81.9104C227.02 80.3763 225.92 79.0756 224.119 78.0084C222.385 76.9412 220.217 76.4075 217.615 76.4075C214.614 76.4075 212.313 76.9412 210.712 78.0084C209.111 79.0756 208.311 80.6431 208.311 82.7108C208.311 84.1116 208.744 85.2789 209.611 86.2127C210.545 87.1465 212.013 88.0136 214.014 88.814C216.081 89.5477 219.016 90.3148 222.818 91.1152C229.021 92.2492 233.957 93.6832 237.626 95.4175C241.361 97.085 244.096 99.2862 245.83 102.021C247.564 104.689 248.432 108.057 248.432 112.126C248.432 116.595 247.131 120.497 244.53 123.832C241.995 127.101 238.426 129.635 233.824 131.436C229.288 133.171 224.086 134.038 218.216 134.038Z" fill="white"/>
<path d="M283.959 134C270.152 134 263.248 127.43 263.248 114.29V95.0797H255.444C254.71 95.0797 254.076 94.8462 253.543 94.3793C253.076 93.9124 252.842 93.3121 252.842 92.5784V84.4742C252.842 83.7404 253.076 83.1401 253.543 82.6732C254.076 82.2063 254.71 81.9728 255.444 81.9728H263.248V64.4976C263.248 63.7639 263.481 63.1636 263.948 62.6967C264.482 62.2298 265.082 61.9963 265.749 61.9963H277.355C278.089 61.9963 278.689 62.2298 279.156 62.6967C279.623 63.1636 279.857 63.7639 279.857 64.4976V81.9728H292.363C293.097 81.9728 293.697 82.2063 294.164 82.6732C294.698 83.1401 294.964 83.7404 294.964 84.4742V92.5784C294.964 93.3121 294.698 93.9124 294.164 94.3793C293.697 94.8462 293.097 95.0797 292.363 95.0797H279.857V112.889C279.857 117.825 281.758 120.293 285.56 120.293H293.264C293.997 120.293 294.598 120.526 295.065 120.993C295.531 121.46 295.765 122.06 295.765 122.794V131.499C295.765 132.166 295.531 132.766 295.065 133.3C294.598 133.767 293.997 134 293.264 134H283.959Z" fill="white"/>
<path d="M319.066 134.038C315.531 134.038 312.296 133.371 309.361 132.037C306.493 130.636 304.225 128.768 302.558 126.434C300.957 124.032 300.156 121.398 300.156 118.53C300.156 113.927 302.024 110.225 305.759 107.424C309.561 104.622 314.764 102.688 321.367 101.621L333.874 99.7197V98.319C333.874 95.7843 333.34 93.9167 332.273 92.7161C331.206 91.5154 329.405 90.9151 326.87 90.9151C325.336 90.9151 324.069 91.1819 323.068 91.7155C322.068 92.2492 321.034 92.9829 319.967 93.9167C319.033 94.7171 318.332 95.2507 317.866 95.5175C317.665 96.0511 317.299 96.318 316.765 96.318H305.859C305.192 96.318 304.625 96.1178 304.158 95.7176C303.758 95.2507 303.591 94.7171 303.658 94.1168C303.725 92.3159 304.592 90.3148 306.259 88.1137C307.994 85.9125 310.595 84.0115 314.064 82.4107C317.599 80.8098 321.934 80.0094 327.07 80.0094C335.275 80.0094 341.344 81.8437 345.28 85.5123C349.215 89.1142 351.183 93.9834 351.183 100.12V131.536C351.183 132.203 350.95 132.804 350.483 133.337C350.016 133.804 349.415 134.038 348.682 134.038H337.076C336.409 134.038 335.808 133.804 335.275 133.337C334.808 132.804 334.574 132.203 334.574 131.536V127.034C333.107 129.102 331.039 130.803 328.371 132.137C325.77 133.404 322.668 134.038 319.066 134.038ZM323.769 122.632C326.837 122.632 329.305 121.631 331.173 119.63C333.107 117.629 334.074 114.694 334.074 110.826V109.425L325.57 110.926C319.566 111.993 316.565 114.094 316.565 117.229C316.565 118.896 317.265 120.23 318.666 121.231C320.067 122.165 321.768 122.632 323.769 122.632Z" fill="white"/>
<path d="M361.077 134.014C360.343 134.014 359.743 133.781 359.276 133.314C358.809 132.847 358.576 132.246 358.576 131.513V84.5179C358.576 83.7842 358.809 83.1839 359.276 82.7169C359.743 82.25 360.343 82.0166 361.077 82.0166H372.583C373.317 82.0166 373.917 82.2834 374.384 82.817C374.918 83.2839 375.184 83.8509 375.184 84.5179V88.52C378.853 84.1844 383.789 82.0166 389.992 82.0166H394.394C395.128 82.0166 395.728 82.25 396.195 82.7169C396.662 83.1839 396.896 83.7842 396.896 84.5179V94.8233C396.896 95.4903 396.662 96.0906 396.195 96.6242C395.728 97.0911 395.128 97.3246 394.394 97.3246H384.689C381.955 97.3246 379.82 98.0916 378.286 99.6258C376.819 101.093 376.085 103.406 376.085 106.141V131.513C376.085 132.246 375.818 132.847 375.284 133.314C374.818 133.781 374.217 134.014 373.484 134.014H361.077Z" fill="white"/>
<path d="M432.426 134.034C418.619 134.034 411.715 127.464 411.715 114.324V94.9881H403.911C403.177 94.9881 402.544 94.7547 402.01 94.2877C401.543 93.8208 401.31 93.2205 401.31 92.4868V84.3826C401.31 83.6489 401.543 83.0485 402.01 82.5816C402.544 82.1147 403.177 81.8813 403.911 81.8813H411.715V64.5013C411.715 63.7676 411.948 63.1673 412.415 62.7004C412.949 62.2335 413.549 62 414.216 62H425.822C426.556 62 427.156 62.2335 427.623 62.7004C428.09 63.1673 428.324 63.7676 428.324 64.5013V81.8813H440.83C441.564 81.8813 442.164 82.1147 442.631 82.5816C443.165 83.0485 443.432 83.6489 443.432 84.3826V92.4868C443.432 93.2205 443.165 93.8208 442.631 94.2877C442.164 94.7547 441.564 94.9881 440.83 94.9881H428.324V112.923C428.324 117.859 430.225 120.327 434.027 120.327H441.731C442.464 120.327 443.065 120.56 443.532 121.027C443.998 121.494 444.232 122.095 444.232 122.828V131.533C444.232 132.2 443.998 132.8 443.532 133.334C443.065 133.801 442.464 134.034 441.731 134.034H432.426Z" fill="white"/>
<path d="M499.293 134.038C489.888 134.038 482.517 131.736 477.181 127.134C471.912 122.532 469.277 115.595 469.277 106.323V64.5439C469.277 63.8101 469.51 63.2098 469.977 62.7429C470.511 62.276 471.111 62.0426 471.778 62.0426H484.685C485.419 62.0426 486.019 62.276 486.486 62.7429C487.02 63.2098 487.286 63.8101 487.286 64.5439V106.223C487.286 110.559 488.287 113.827 490.288 116.028C492.356 118.163 495.324 119.23 499.193 119.23C502.995 119.23 505.929 118.129 507.997 115.928C510.065 113.727 511.099 110.492 511.099 106.223V64.5439C511.099 63.8101 511.332 63.2098 511.799 62.7429C512.333 62.276 512.933 62.0426 513.6 62.0426H526.607C527.341 62.0426 527.941 62.276 528.408 62.7429C528.875 63.2098 529.108 63.8101 529.108 64.5439V106.323C529.108 115.595 526.44 122.532 521.104 127.134C515.835 131.736 508.564 134.038 499.293 134.038Z" fill="white"/>
<path d="M545.492 134.034C544.825 134.034 544.224 133.801 543.691 133.334C543.224 132.8 542.99 132.2 542.99 131.533V64.5439C542.99 63.8101 543.224 63.2098 543.691 62.7429C544.224 62.276 544.825 62.0426 545.492 62.0426H558.899C559.632 62.0426 560.233 62.276 560.7 62.7429C561.233 63.2098 561.5 63.8101 561.5 64.5439V131.533C561.5 132.266 561.233 132.867 560.7 133.334C560.233 133.801 559.632 134.034 558.899 134.034H545.492Z" fill="white"/>
<path d="M615.176 113H621.937L627.179 95.358H627.406L632.647 113H639.423L647.875 83.9092H640.119L635.716 103.014H635.474L630.46 83.9092H624.125L619.111 102.972H618.869L614.48 83.9092H606.71L615.176 113Z" fill="white"/>
<path d="M650.78 113H671.064V107.29H657.811V101.31H670.027V95.5853H657.811V89.6194H671.064V83.9092H650.78V113Z" fill="white"/>
<path d="M675.467 113H688.521C694.956 113 698.649 109.563 698.649 104.861C698.649 100.656 695.595 98.0143 692.072 97.858V97.574C695.268 96.9063 697.513 94.591 697.513 91.2671C697.513 86.8779 694.132 83.9092 687.598 83.9092H675.467V113ZM682.498 107.332V100.401H686.973C689.657 100.401 691.305 101.821 691.305 104.051C691.305 106.111 689.885 107.332 686.845 107.332H682.498ZM682.498 95.8694V89.4916H686.504C688.848 89.4916 690.339 90.699 690.339 92.6308C690.339 94.6762 688.691 95.8694 686.39 95.8694H682.498Z" fill="white"/>
<path fill-rule="evenodd" clip-rule="evenodd" d="M710 67H596C593.239 67 591 69.2386 591 72V124C591 126.761 593.239 129 596 129H710C712.761 129 715 126.761 715 124V72C715 69.2386 712.761 67 710 67ZM596 62C590.477 62 586 66.4772 586 72V124C586 129.523 590.477 134 596 134H710C715.523 134 720 129.523 720 124V72C720 66.4772 715.523 62 710 62H596Z" fill="white"/>
<defs>
<linearGradient id="paint0_linear" x1="106.499" y1="40.0005" x2="106.499" y2="156" gradientUnits="userSpaceOnUse">
<stop stop-color="#FCD34D"/>
<stop offset="1" stop-color="#F59E0B"/>
</linearGradient>
</defs>
</svg>
