<svg width="512" height="116" viewBox="0 0 512 116" fill="none" xmlns="http://www.w3.org/2000/svg">
<path d="M168.716 94.0376C162.379 94.0376 156.943 93.1038 152.407 91.2362C147.872 89.3685 144.436 86.9339 142.102 83.9323C139.834 80.8641 138.633 77.529 138.5 73.9271C138.5 73.3935 138.7 72.9266 139.1 72.5264C139.567 72.0595 140.101 71.826 140.701 71.826H153.308C154.108 71.826 154.742 71.9928 155.209 72.3263C155.742 72.5931 156.276 73.0266 156.81 73.627C157.677 75.3612 159.077 76.7953 161.012 77.9292C162.946 79.0631 165.514 79.6301 168.716 79.6301C172.518 79.6301 175.419 79.0298 177.42 77.8292C179.421 76.6285 180.422 74.9943 180.422 72.9266C180.422 71.4592 179.888 70.2585 178.821 69.3247C177.821 68.3909 176.22 67.5571 174.019 66.8234C171.817 66.0897 168.549 65.2559 164.213 64.3221C156.209 62.6546 150.206 60.22 146.204 57.0183C142.269 53.7499 140.301 49.1142 140.301 43.111C140.301 39.0422 141.435 35.407 143.703 32.2053C145.971 29.0037 149.206 26.5023 153.408 24.7014C157.61 22.9005 162.513 22 168.115 22C173.919 22 178.954 23.0005 183.223 25.0016C187.492 27.0026 190.727 29.5373 192.928 32.6055C195.196 35.6071 196.397 38.5753 196.53 41.5102C196.53 42.1105 196.33 42.6108 195.93 43.011C195.53 43.4112 195.03 43.6113 194.429 43.6113H181.222C180.422 43.6113 179.755 43.4779 179.221 43.2111C178.754 42.9443 178.321 42.5107 177.921 41.9104C177.52 40.3763 176.42 39.0756 174.619 38.0084C172.885 36.9411 170.717 36.4075 168.115 36.4075C165.114 36.4075 162.813 36.9411 161.212 38.0084C159.611 39.0756 158.811 40.6431 158.811 42.7108C158.811 44.1115 159.244 45.2788 160.111 46.2126C161.045 47.1465 162.513 48.0136 164.514 48.814C166.581 49.5477 169.516 50.3148 173.318 51.1152C179.521 52.2491 184.457 53.6832 188.126 55.4174C191.861 57.085 194.596 59.2861 196.33 62.0209C198.064 64.689 198.932 68.0574 198.932 72.1262C198.932 76.5952 197.631 80.4972 195.03 83.8323C192.495 87.1007 188.926 89.6353 184.324 91.4363C179.788 93.1705 174.586 94.0376 168.716 94.0376Z" fill="white"/>
<path d="M234.459 94C220.652 94 213.748 87.4299 213.748 74.2897V55.0797H205.944C205.21 55.0797 204.576 54.8462 204.043 54.3793C203.576 53.9124 203.342 53.3121 203.342 52.5784V44.4741C203.342 43.7404 203.576 43.1401 204.043 42.6732C204.576 42.2063 205.21 41.9728 205.944 41.9728H213.748V24.4976C213.748 23.7639 213.981 23.1636 214.448 22.6967C214.982 22.2298 215.582 21.9963 216.249 21.9963H227.855C228.589 21.9963 229.189 22.2298 229.656 22.6967C230.123 23.1636 230.357 23.7639 230.357 24.4976V41.9728H242.863C243.597 41.9728 244.197 42.2063 244.664 42.6732C245.198 43.1401 245.464 43.7404 245.464 44.4741V52.5784C245.464 53.3121 245.198 53.9124 244.664 54.3793C244.197 54.8462 243.597 55.0797 242.863 55.0797H230.357V72.889C230.357 77.8249 232.258 80.2928 236.06 80.2928H243.764C244.497 80.2928 245.098 80.5263 245.565 80.9932C246.031 81.4601 246.265 82.0604 246.265 82.7941V91.4987C246.265 92.1657 246.031 92.766 245.565 93.2996C245.098 93.7665 244.497 94 243.764 94H234.459Z" fill="white"/>
<path d="M269.566 94.0376C266.031 94.0376 262.796 93.3706 259.861 92.0366C256.993 90.6358 254.725 88.7682 253.058 86.4337C251.457 84.0324 250.656 81.3977 250.656 78.5295C250.656 73.9271 252.524 70.2252 256.259 67.4237C260.061 64.6223 265.264 62.6879 271.867 61.6207L284.374 59.7197V58.319C284.374 55.7843 283.84 53.9167 282.773 52.716C281.706 51.5154 279.905 50.9151 277.37 50.9151C275.836 50.9151 274.569 51.1819 273.568 51.7155C272.568 52.2491 271.534 52.9828 270.467 53.9167C269.533 54.7171 268.832 55.2507 268.366 55.5175C268.165 56.0511 267.799 56.3179 267.265 56.3179H256.359C255.692 56.3179 255.125 56.1178 254.658 55.7176C254.258 55.2507 254.091 54.7171 254.158 54.1168C254.225 52.3158 255.092 50.3148 256.759 48.1136C258.494 45.9125 261.095 44.0115 264.564 42.4107C268.099 40.8098 272.434 40.0094 277.57 40.0094C285.775 40.0094 291.844 41.8437 295.78 45.5123C299.715 49.1142 301.683 53.9834 301.683 60.1199V91.5363C301.683 92.2033 301.45 92.8037 300.983 93.3373C300.516 93.8042 299.915 94.0376 299.182 94.0376H287.576C286.909 94.0376 286.308 93.8042 285.775 93.3373C285.308 92.8037 285.074 92.2033 285.074 91.5363V87.034C283.607 89.1017 281.539 90.8026 278.871 92.1366C276.27 93.404 273.168 94.0376 269.566 94.0376ZM274.269 82.6317C277.337 82.6317 279.805 81.6311 281.673 79.6301C283.607 77.6291 284.574 74.6942 284.574 70.8255V69.4248L276.07 70.9256C270.066 71.9928 267.065 74.0939 267.065 77.2288C267.065 78.8964 267.765 80.2304 269.166 81.2309C270.567 82.1648 272.268 82.6317 274.269 82.6317Z" fill="white"/>
<path d="M311.577 94.014C310.843 94.014 310.243 93.7806 309.776 93.3137C309.309 92.8467 309.076 92.2464 309.076 91.5127V44.5179C309.076 43.7841 309.309 43.1838 309.776 42.7169C310.243 42.25 310.843 42.0165 311.577 42.0165H323.083C323.817 42.0165 324.417 42.2834 324.884 42.817C325.418 43.2839 325.684 43.8508 325.684 44.5179V48.5199C329.353 44.1843 334.289 42.0165 340.492 42.0165H344.894C345.628 42.0165 346.228 42.25 346.695 42.7169C347.162 43.1838 347.396 43.7841 347.396 44.5179V54.8232C347.396 55.4903 347.162 56.0906 346.695 56.6242C346.228 57.0911 345.628 57.3246 344.894 57.3246H335.189C332.455 57.3246 330.32 58.0916 328.786 59.6257C327.319 61.0932 326.585 63.4064 326.585 66.1411V91.5127C326.585 92.2464 326.318 92.8467 325.784 93.3137C325.318 93.7806 324.717 94.014 323.984 94.014H311.577Z" fill="white"/>
<path d="M382.926 94.0341C369.119 94.0341 362.215 87.464 362.215 74.3238V54.9881H354.411C353.677 54.9881 353.044 54.7546 352.51 54.2877C352.043 53.8208 351.81 53.2205 351.81 52.4868V44.3825C351.81 43.6488 352.043 43.0485 352.51 42.5816C353.044 42.1147 353.677 41.8812 354.411 41.8812H362.215V24.5013C362.215 23.7676 362.448 23.1673 362.915 22.7004C363.449 22.2334 364.049 22 364.716 22H376.322C377.056 22 377.656 22.2334 378.123 22.7004C378.59 23.1673 378.824 23.7676 378.824 24.5013V41.8812H391.33C392.064 41.8812 392.664 42.1147 393.131 42.5816C393.665 43.0485 393.932 43.6488 393.932 44.3825V52.4868C393.932 53.2205 393.665 53.8208 393.131 54.2877C392.664 54.7546 392.064 54.9881 391.33 54.9881H378.824V72.9231C378.824 77.859 380.725 80.327 384.527 80.327H392.231C392.964 80.327 393.565 80.5604 394.032 81.0273C394.498 81.4942 394.732 82.0946 394.732 82.8283V91.5328C394.732 92.1998 394.498 92.8002 394.032 93.3338C393.565 93.8007 392.964 94.0341 392.231 94.0341H382.926Z" fill="white"/>
<path d="M449.793 94.0376C440.388 94.0376 433.017 91.7364 427.681 87.134C422.412 82.5316 419.777 75.5947 419.777 66.3231V24.5438C419.777 23.8101 420.01 23.2098 420.477 22.7429C421.011 22.276 421.611 22.0425 422.278 22.0425H435.185C435.919 22.0425 436.519 22.276 436.986 22.7429C437.52 23.2098 437.786 23.8101 437.786 24.5438V66.2231C437.786 70.5587 438.787 73.8271 440.788 76.0282C442.856 78.1627 445.824 79.2299 449.693 79.2299C453.495 79.2299 456.429 78.1293 458.497 75.9282C460.565 73.727 461.599 70.492 461.599 66.2231V24.5438C461.599 23.8101 461.832 23.2098 462.299 22.7429C462.833 22.276 463.433 22.0425 464.1 22.0425H477.107C477.841 22.0425 478.441 22.276 478.908 22.7429C479.375 23.2098 479.608 23.8101 479.608 24.5438V66.3231C479.608 75.5947 476.94 82.5316 471.604 87.134C466.335 91.7364 459.064 94.0376 449.793 94.0376Z" fill="white"/>
<path d="M495.992 94.034C495.325 94.034 494.724 93.8006 494.191 93.3337C493.724 92.8001 493.49 92.1997 493.49 91.5327V24.5438C493.49 23.8101 493.724 23.2098 494.191 22.7429C494.724 22.276 495.325 22.0425 495.992 22.0425H509.399C510.132 22.0425 510.733 22.276 511.2 22.7429C511.733 23.2098 512 23.8101 512 24.5438V91.5327C512 92.2664 511.733 92.8668 511.2 93.3337C510.733 93.8006 510.132 94.034 509.399 94.034H495.992Z" fill="white"/>
<path d="M51.2588 0.876332C43.4004 -0.61177 35.2609 -0.242542 27.6724 2.27492C15.7343 6.23854 1.82814 16.3392 0.630395 41.7908C-1.5008 87.0408 22.7099 110.828 57.301 115.664C83.4488 119.32 101.083 92.1904 108.129 78.7416C111.748 71.9002 113.593 64.268 113.496 56.5375C113.198 38.9404 103.974 10.8539 51.2588 0.876332Z" fill="url(#paint0_linear)"/>
<path d="M78.7431 34.8907L38.7976 30.6743C31.3628 29.8896 26.0327 37.7147 29.4746 44.3648C30.8334 46.9912 31.5214 49.915 31.4772 52.875C31.4331 55.835 31.2636 58.2006 29.2214 61.3274C27.1792 64.4542 21.2402 71.6022 21.2402 71.6022C21.0873 71.8771 21.0048 72.1855 21 72.5C20.9952 72.8145 21.0682 73.1251 21.2125 73.4041C21.3569 73.6832 21.568 73.9219 21.8271 74.0989C22.0861 74.276 22.3851 74.3858 22.6971 74.4186C22.6971 74.4186 31.2296 73.9532 34.8093 73.4904C38.3889 73.0276 41.0059 74.9414 43.6337 76.7381C46.2614 78.5348 48.4034 80.9565 49.8683 83.7869C53.3189 90.4394 62.765 90.5672 66.4032 84.0086L85.9468 48.7982C86.6994 47.4398 87.105 45.9162 87.1273 44.3635C87.1495 42.8107 86.7878 41.2772 86.0743 39.8998C85.3609 38.5224 84.3179 37.3441 83.0387 36.47C81.7594 35.5959 80.2836 35.0533 78.7431 34.8907Z" fill="#121212"/>
<defs>
<linearGradient id="paint0_linear" x1="-107" y1="73.5" x2="-51.9965" y2="-46.1155" gradientUnits="userSpaceOnUse">
<stop offset="0.234375" stop-color="#FCD34D"/>
<stop offset="0.377063" stop-color="#FD6243"/>
<stop offset="0.770833" stop-color="#8364F4"/>
<stop offset="1" stop-color="#92EFCD"/>
</linearGradient>
</defs>
</svg>
