<svg width="200" height="50" viewBox="0 0 200 50" fill="none" xmlns="http://www.w3.org/2000/svg">
<path d="M18.5873 4C10.8153 4 5.82733 8.698 5.82733 15.542C5.82733 28.534 23.3433 27.374 23.3433 34.334C23.3433 36.944 21.5453 38.51 18.5293 38.51C14.8753 38.51 12.6133 36.016 11.5113 33.348L4.60933 36.712C5.76933 40.018 9.36533 46.108 18.0653 46.108C26.5333 46.108 31.6373 40.888 31.6373 33.754C31.6373 21.168 14.0053 22.154 14.0053 15.426C14.0053 13.222 15.6293 11.54 18.4133 11.54C21.9513 11.54 23.4593 14.034 24.3293 15.948L31.1153 12.874C30.1293 9.916 26.7653 4 18.5873 4Z" fill="#2D3748"/>
<path d="M37.4654 15.02H34.2174V21.516H37.4074V33.464C37.4074 41.7 40.5974 45.76 47.8474 45.76C50.0514 45.76 51.2694 45.47 51.2694 45.47V38.626C50.6314 38.684 50.3414 38.684 49.8194 38.684C46.7454 38.684 45.3534 37.756 45.3534 33.232V21.516H51.0374V15.02H45.3534V8.64H37.4654V15.02Z" fill="#2D3748"/>
<path d="M54.2859 35.958C54.2859 42.338 59.5059 46.108 65.6539 46.108C69.1339 46.108 71.4539 45.064 73.0199 43.382L73.5419 45.354H80.6179V26.156C80.6179 19.37 77.7179 14.266 67.9739 14.266C63.3339 14.266 58.7519 16.006 56.0259 17.862L59.0419 23.314C61.3039 22.154 64.0879 21.168 67.1039 21.168C70.6419 21.168 72.6139 22.966 72.6139 25.634V27.606C71.5119 26.852 69.1339 25.924 66.0599 25.924C58.9839 25.924 54.2859 29.984 54.2859 35.958ZM62.2899 35.726C62.2899 33.232 64.4359 31.492 67.5099 31.492C70.5839 31.492 72.7879 33.058 72.7879 35.726C72.7879 38.278 70.5839 39.902 67.5679 39.902C64.5519 39.902 62.2899 38.22 62.2899 35.726Z" fill="#2D3748"/>
<path d="M102.737 14.266C98.7352 14.266 95.7192 16.412 94.3852 19.428V15.02H86.5552V45.354H94.5592V32.13C94.5592 26.098 96.7632 22.386 102.737 22.386V14.266Z" fill="#2D3748"/>
<path d="M109.965 15.02H106.717V21.516H109.907V33.464C109.907 41.7 113.097 45.76 120.347 45.76C122.551 45.76 123.769 45.47 123.769 45.47V38.626C123.131 38.684 122.841 38.684 122.319 38.684C119.245 38.684 117.853 37.756 117.853 33.232V21.516H123.537V15.02H117.853V8.64H109.965V15.02Z" fill="#2D3748"/>
<path d="M159.849 46.108C170.347 46.108 176.205 39.67 176.205 30.1V4.754H168.027V30.1C168.027 35.262 165.069 38.51 159.849 38.51C154.629 38.51 151.671 35.262 151.671 30.1V4.754H143.493V30.1C143.493 39.67 149.351 46.108 159.849 46.108Z" fill="#2D3748"/>
<path d="M183.825 45.354H192.003V4.754H183.825V45.354Z" fill="#2D3748"/>
</svg>
